M48
; DRILL file {KiCad 9.0.8-9.0.8~ubuntu22.04.1} date 2026-03-28T09:58:10+0000
; FORMAT={-:-/ absolute / inch / decimal}
; #@! TF.CreationDate,2026-03-28T09:58:10+00:00
; #@! TF.GenerationSoftware,Kicad,Pcbnew,9.0.8-9.0.8~ubuntu22.04.1
; #@! TF.FileFunction,Plated,1,6,PTH
FMAT,2
INCH
; #@! TA.AperFunction,Plated,PTH,ViaDrill
T1C0.0118
; #@! TA.AperFunction,Plated,PTH,ViaDrill
T2C0.0157
; #@! TA.AperFunction,Plated,PTH,ViaDrill
T3C0.0197
; #@! TA.AperFunction,Plated,PTH,ComponentDrill
T4C0.0315
; #@! TA.AperFunction,Plated,PTH,ComponentDrill
T5C0.0394
; #@! TA.AperFunction,Plated,PTH,ComponentDrill
T6C0.3307
%
G90
G05
T1
X2.3564Y-3.2694
X2.4064Y-3.4394
X2.4264Y-3.7594
X2.4272Y-3.3435
X2.4464Y-3.6494
X2.4564Y-3.2894
X2.4646Y-3.2352
X2.5164Y-3.8794
X2.5492Y-2.8553
X2.6516Y-3.2352
X2.6564Y-3.5494
X2.7116Y-6.0984
X2.8135Y-3.6122
X2.8533Y-6.0266
X2.8553Y-2.8435
X2.8907Y-3.5325
X3.0482Y-3.6024
X3.0482Y-3.6663
X3.2264Y-3.689
X3.2736Y-3.6781
X3.3976Y-3.6201
X3.5164Y-3.1594
X3.563Y-3.4557
X3.6171Y-3.2234
X3.6654Y-3.6781
X3.7372Y-3.4173
X3.7382Y-3.2008
X3.8564Y-3.8894
X3.8864Y-3.5294
X4.0864Y-6.0694
X4.1364Y-5.5394
X4.247Y-1.7254
X4.2913Y-3.2411
X4.3764Y-5.9194
X4.3819Y-3.1073
X5.0664Y-5.2194
X5.1264Y-4.8294
X5.1909Y-3.7254
X5.2964Y-5.2194
X5.3264Y-2.7194
X5.4045Y-3.9675
X5.4164Y-4.3394
X5.4464Y-2.6394
X5.4564Y-2.4494
X5.6024Y-3.8346
X5.624Y-4.3376
X5.6732Y-4.2953
X5.7264Y-3.6094
X5.7364Y-5.3394
X5.7402Y-3.4921
X5.747Y-4.6053
X5.748Y-4.5768
X5.7664Y-2.6994
X5.7805Y-3.7854
X5.7825Y-3.9695
X5.7864Y-5.5794
X5.7969Y-5.2598
X5.81Y-3.999
X5.8164Y-5.5094
X5.8443Y-4.19
X5.8464Y-2.6494
X5.8464Y-3.503
X5.8464Y-3.6294
X5.876Y-2.3878
X5.8811Y-4.3346
X5.9064Y-2.4194
X5.9364Y-4.7994
X5.9596Y-4.5974
X5.9664Y-5.5194
X5.9695Y-3.6476
X5.9864Y-4.8258
X5.9964Y-4.3494
X5.9964Y-5.2494
X6.001Y-4.0581
X6.0256Y-3.8848
X6.0335Y-2.3839
X6.0453Y-3.6467
X6.0551Y-4.3217
X6.0564Y-4.2394
X6.0571Y-3.126
X6.0699Y-2.4055
X6.0708Y-4.2944
X6.0764Y-4.4894
X6.0837Y-4.5413
X6.0837Y-5.6673
X6.0864Y-2.5894
X6.0864Y-5.1394
X6.0935Y-3.3386
X6.0964Y-3.8894
X6.1064Y-2.4394
X6.1181Y-3.1398
X6.1364Y-3.8794
X6.1378Y-2.0965
X6.1476Y-2.4252
X6.1535Y-4.9783
X6.1664Y-5.3594
X6.1772Y-1.9882
X6.1811Y-3.4272
X6.1864Y-4.6594
X6.1964Y-4.3494
X6.2047Y-3.4902
X6.2064Y-1.7794
X6.2064Y-2.0894
X6.2064Y-5.2594
X6.2116Y-3.4547
X6.2146Y-3.374
X6.2264Y-4.2094
X6.2461Y-1.7972
X6.2464Y-5.5094
X6.2657Y-3.1437
X6.2664Y-4.7194
X6.2764Y-4.5094
X6.311Y-1.9587
X6.313Y-1.8563
X6.3164Y-4.1094
X6.3264Y-5.3294
X6.3307Y-3.878
X6.3364Y-4.1494
X6.3464Y-4.0794
X6.3661Y-4.5843
X6.3661Y-6.0187
X6.3907Y-3.9783
X6.3937Y-4.1624
X6.3957Y-3.689
X6.3967Y-3.6358
X6.4055Y-3.0758
X6.4064Y-5.2594
X6.4094Y-3.5089
X6.4364Y-4.2794
X6.4439Y-4.2352
X6.4464Y-4.0394
X6.4464Y-4.7894
X6.4564Y-4.3194
X6.4664Y-3.9294
X6.4675Y-1.9872
X6.4764Y-3.7094
X6.4864Y-5.4794
X6.5064Y-4.8194
X6.5344Y-4.5794
X6.5364Y-4.7694
X6.5964Y-4.0294
X6.6004Y-3.8248
X6.6102Y-2.3514
X6.6364Y-1.7994
X6.6564Y-4.0094
X6.6964Y-4.3794
X6.7064Y-3.3894
X6.7164Y-4.2194
X6.7372Y-3.8839
X6.7569Y-4.1378
X6.8406Y-3.5561
X6.9224Y-3.2327
X6.9224Y-3.3727
X7.3317Y-4.6348
X7.378Y-4.0728
X7.4252Y-4.3248
X7.5551Y-3.9193
X7.9764Y-4.9232
X8.2697Y-3.4094
X8.3366Y-3.565
X8.3967Y-3.8248
X8.5955Y-4.376
X8.6614Y-4.3406
X9.1364Y-3.2094
X9.2382Y-3.8396
X9.2913Y-4.3681
X9.4564Y-3.7094
X9.5157Y-3.4528
X9.5164Y-5.0094
T2
X4.1299Y-3.5669
X4.1299Y-4.1171
X4.1309Y-3.6575
X4.1309Y-3.753
X4.1309Y-3.8406
X4.1309Y-4.0187
X4.1309Y-4.2224
X4.1319Y-3.4754
X4.1329Y-3.9321
X4.4277Y-3.4414
X4.4577Y-4.0856
X4.4685Y-3.6821
X4.5502Y-4.1122
X4.56Y-4.0463
X4.5837Y-3.9537
X4.5925Y-3.5935
X5.6486Y-3.0994
X5.6555Y-3.1496
X5.6555Y-3.2106
T3
X2.4064Y-4.2694
X2.4606Y-5.8278
X2.4664Y-4.5694
X2.5464Y-4.5694
X2.5664Y-4.7594
X2.5864Y-4.9294
X2.6564Y-4.4194
X2.9364Y-4.6594
X2.9764Y-4.7594
X3.0264Y-3.2694
X3.0364Y-4.6494
X3.0413Y-5.9557
X3.0463Y-5.6467
X3.1064Y-4.5594
X3.2364Y-5.4394
X3.3064Y-4.7994
X3.3764Y-4.2694
X3.3854Y-3.2784
X3.3864Y-4.5494
X3.4464Y-4.6994
X3.4464Y-5.5594
X3.5064Y-4.8594
X3.5187Y-5.7215
X3.5246Y-6.0069
X3.5256Y-5.8543
X3.6664Y-5.4594
X3.8464Y-4.9794
X3.8564Y-4.4794
X3.9264Y-4.6994
X4.0464Y-4.5494
X4.2992Y-5.9262
X4.3278Y-6.0689
X4.4194Y-4.4764
X4.4864Y-4.4764
X4.5457Y-4.6994
X4.5457Y-4.7694
X4.5464Y-4.8394
X4.5564Y-4.4764
X4.6664Y-4.3094
X4.6664Y-4.7094
X4.7064Y-4.0994
X4.7164Y-4.3594
X4.7364Y-4.7094
X4.7764Y-2.8947
X4.8064Y-4.1094
X4.8164Y-4.5694
X4.8264Y-4.3894
X4.8314Y-2.8744
X4.8664Y-2.8394
X4.8864Y-4.5694
X4.8964Y-4.1194
X4.9064Y-4.3894
X4.9364Y-5.8394
X4.9464Y-4.5694
X5.0797Y-5.8583
X5.0964Y-4.4694
X5.1464Y-4.1894
X5.1732Y-3.5768
X5.1772Y-2.9734
X5.2064Y-4.1894
X5.2215Y-3.1407
X5.2421Y-3.4774
X5.2746Y-3.5768
X5.2854Y-5.9783
X5.2876Y-5.5072
X5.2904Y-5.8248
X5.2976Y-5.3672
X5.3169Y-3.4754
X5.3209Y-3.1417
X5.4035Y-3.4744
X5.4055Y-3.5768
X5.5464Y-5.8294
X5.5492Y-3.6014
X5.7234Y-1.6427
X5.7234Y-5.4272
X5.8264Y-4.5994
X5.8474Y-1.9518
X5.8524Y-1.81
X5.8701Y-3.0748
X5.9154Y-4.69
X5.9724Y-2.0364
X5.999Y-2.6289
X6.0423Y-1.6437
X6.062Y-3.4213
X6.0699Y-2.8159
X6.0709Y-2.7264
X6.0807Y-1.7717
X6.1033Y-6.1014
X6.1368Y-1.9006
X6.2464Y-3.0394
X6.248Y-2.6535
X6.2964Y-1.6494
X6.3664Y-3.1294
X6.3691Y-5.5177
X6.4208Y-2.034
X6.4508Y-5.4301
X6.4951Y-6.1201
X6.5164Y-3.0394
X6.6964Y-6.0894
X6.7067Y-2.8169
X6.7077Y-2.878
X7.0906Y-2.69
X7.0945Y-4.1594
X7.0955Y-4.0392
X7.2313Y-2.7608
X7.7057Y-3.4528
X7.7067Y-4.5217
X7.7087Y-3.9449
X7.8209Y-4.248
X7.8317Y-4.7539
X7.8317Y-4.8406
X7.8346Y-4.1565
X8.1663Y-3.7864
X8.1673Y-3.6781
X8.3967Y-3.4606
X8.3996Y-4.5315
X8.4016Y-3.9409
X8.435Y-5.7402
X8.5167Y-4.1624
X8.5207Y-4.253
X8.5246Y-4.8632
X8.5256Y-4.7579
X8.5285Y-3.7618
X8.5325Y-3.6693
X8.622Y-5.8337
X8.6841Y-5.5935
X9.0285Y-3.4626
X9.0305Y-3.9459
X9.0305Y-4.5089
X9.1064Y-2.8194
X9.1644Y-4.1555
X9.1644Y-4.2549
X9.1683Y-3.685
X9.1703Y-3.7598
X9.1722Y-4.8366
X9.1732Y-4.7402
X9.4264Y-3.1294
X9.4264Y-3.2694
T4
X2.1801Y-5.3998
X2.227Y-2.2467
X2.2528Y-5.2244
X2.2528Y-5.5752
X2.2758Y-2.3793
X2.2868Y-2.1014
X2.4278Y-2.447
X2.4281Y-2.0463
X2.4281Y-5.1518
X2.4281Y-5.6478
X2.5585Y-2.0943
X2.5604Y-2.3974
X2.6035Y-5.2244
X2.6035Y-5.5752
X2.6285Y-2.247
X2.6762Y-5.3998
X4.4888Y-2.2467
X4.4888Y-5.3994
X4.5376Y-2.3793
X4.5376Y-5.5321
X4.5486Y-2.1014
X4.5486Y-5.2541
X4.6896Y-2.447
X4.6896Y-5.5998
X4.69Y-2.0463
X4.69Y-5.199
X4.8203Y-2.0943
X4.8203Y-5.247
X4.8222Y-2.3974
X4.8222Y-5.5502
X4.8904Y-2.247
X4.8904Y-5.3998
X6.7498Y-2.2467
X6.7498Y-5.3994
X6.7986Y-2.3793
X6.7986Y-5.5321
X6.8096Y-2.1014
X6.8096Y-5.2541
X6.9506Y-2.447
X6.9506Y-5.5998
X6.951Y-2.0463
X6.951Y-5.199
X7.0813Y-2.0943
X7.0813Y-5.247
X7.0833Y-2.3974
X7.0833Y-5.5502
X7.1514Y-2.247
X7.1514Y-5.3998
X9.0203Y-2.2467
X9.0203Y-5.3994
X9.0691Y-2.3793
X9.0691Y-5.5321
X9.0801Y-2.1014
X9.0801Y-5.2541
X9.2211Y-2.447
X9.2211Y-5.5998
X9.2215Y-2.0463
X9.2215Y-5.199
X9.3518Y-2.0943
X9.3518Y-5.247
X9.3537Y-2.3974
X9.3537Y-5.5502
X9.4219Y-2.247
X9.4219Y-5.3998
T5
X2.122Y-3.9419
X2.2028Y-3.1486
X2.2549Y-2.6417
X2.2787Y-1.7717
X2.2787Y-1.8717
X2.2787Y-5.9646
X2.2787Y-6.0646
X2.3787Y-1.7717
X2.3787Y-1.8717
X2.3787Y-5.9646
X2.3787Y-6.0646
X2.4787Y-1.7717
X2.4787Y-1.8717
X2.4787Y-5.9646
X2.4787Y-6.0646
X2.5787Y-1.7717
X2.5787Y-1.8717
X2.5787Y-5.9646
X2.5787Y-6.0646
X2.7057Y-3.1378
X2.7283Y-1.6585
X2.7825Y-3.9331
X3.2215Y-5.0453
X3.374Y-3.8219
X4.1102Y-4.7293
X4.1358Y-5.251
X4.5425Y-1.7717
X4.5425Y-1.8717
X4.5425Y-5.9646
X4.5425Y-6.0646
X4.6425Y-1.7717
X4.6425Y-1.8717
X4.6425Y-5.9646
X4.6425Y-6.0646
X4.7425Y-1.7717
X4.7425Y-1.8717
X4.7425Y-5.9646
X4.7425Y-6.0646
X4.8425Y-1.7717
X4.8425Y-1.8717
X4.8425Y-5.9646
X4.8425Y-6.0646
X5.0719Y-1.6781
X5.0719Y-1.8907
X5.0807Y-2.6382
X5.0807Y-2.7382
X5.0935Y-6.0423
X5.2707Y-1.7569
X5.6053Y-5.6811
X5.6063Y-5.9547
X5.8612Y-5.6762
X5.8642Y-5.8858
X6.6112Y-3.2372
X6.7648Y-4.3022
X6.7687Y-5.8878
X6.7793Y-4.7087
X6.8793Y-4.7087
X6.9545Y-3.7106
X6.9793Y-4.7087
X6.998Y-5.8947
X7.0276Y-3.1181
X7.0276Y-3.2181
X7.0276Y-3.3181
X7.0545Y-3.7106
X7.0793Y-4.7087
X7.1545Y-3.7106
X7.1793Y-4.7087
X7.1998Y-5.8976
X7.2185Y-4.4606
X7.249Y-4.1811
X7.8858Y-5.5915
X7.8907Y-5.9144
X9.0701Y-5.9646
X9.0701Y-6.0646
X9.1701Y-5.9646
X9.1701Y-6.0646
X9.2701Y-5.9646
X9.2701Y-6.0646
X9.3701Y-5.9646
X9.3701Y-6.0646
T6
X2.4281Y-2.247
X2.4281Y-5.3998
X4.69Y-2.247
X4.69Y-5.3998
X6.951Y-2.247
X6.951Y-5.3998
X9.2215Y-2.247
X9.2215Y-5.3998
M30
