%TF.GenerationSoftware,KiCad,Pcbnew,9.0.7-9.0.7~ubuntu22.04.1*%
%TF.CreationDate,2026-03-27T14:35:29+00:00*%
%TF.ProjectId,FDU_V1,4644555f-5631-42e6-9b69-6361645f7063,rev?*%
%TF.SameCoordinates,Original*%
%TF.FileFunction,Copper,L5,Inr*%
%TF.FilePolarity,Positive*%
%FSLAX46Y46*%
G04 Gerber Fmt 4.6, Leading zero omitted, Abs format (unit mm)*
G04 Created by KiCad (PCBNEW 9.0.7-9.0.7~ubuntu22.04.1) date 2026-03-27 14:35:29*
%MOMM*%
%LPD*%
G01*
G04 APERTURE LIST*
%TA.AperFunction,ComponentPad*%
%ADD10R,1.700000X1.700000*%
%TD*%
%TA.AperFunction,ComponentPad*%
%ADD11C,1.700000*%
%TD*%
%TA.AperFunction,ComponentPad*%
%ADD12C,2.000000*%
%TD*%
%TA.AperFunction,ComponentPad*%
%ADD13C,1.100000*%
%TD*%
%TA.AperFunction,ComponentPad*%
%ADD14C,12.000000*%
%TD*%
%TA.AperFunction,ComponentPad*%
%ADD15O,1.700000X1.700000*%
%TD*%
%TA.AperFunction,ComponentPad*%
%ADD16C,16.800000*%
%TD*%
%TA.AperFunction,ViaPad*%
%ADD17C,0.600000*%
%TD*%
%TA.AperFunction,ViaPad*%
%ADD18C,1.000000*%
%TD*%
%TA.AperFunction,ViaPad*%
%ADD19C,0.800000*%
%TD*%
%TA.AperFunction,Conductor*%
%ADD20C,0.300000*%
%TD*%
%TA.AperFunction,Conductor*%
%ADD21C,0.500000*%
%TD*%
%TA.AperFunction,Conductor*%
%ADD22C,0.800000*%
%TD*%
%TA.AperFunction,Conductor*%
%ADD23C,0.254000*%
%TD*%
G04 APERTURE END LIST*
D10*
%TO.N,/CANL*%
%TO.C,J4*%
X178500000Y-79200000D03*
D11*
%TO.N,/CANH*%
X178500000Y-81740000D03*
%TO.N,GND*%
X178500000Y-84280000D03*
%TD*%
D12*
%TO.N,Net-(C3-Pad1)*%
%TO.C,TP1*%
X167925000Y-82225000D03*
%TD*%
%TO.N,Net-(CONN4-Pin_2)*%
%TO.C,TP18*%
X69300000Y-42125000D03*
%TD*%
%TO.N,/VOUTN*%
%TO.C,TP22*%
X128825000Y-48025000D03*
%TD*%
%TO.N,/VOUTP*%
%TO.C,TP21*%
X128825000Y-42625000D03*
%TD*%
%TO.N,/UDC_IN*%
%TO.C,TP13*%
X85700000Y-97075000D03*
%TD*%
%TO.N,Net-(IC11-VIN+)*%
%TO.C,TP14*%
X53900000Y-100125000D03*
%TD*%
%TO.N,/S{slash}D HV DATA*%
%TO.C,TP16*%
X68725000Y-79700000D03*
%TD*%
%TO.N,/8Mhz Clock*%
%TO.C,TP15*%
X70675000Y-99900000D03*
%TD*%
%TO.N,/S{slash}D HV CLK*%
%TO.C,TP17*%
X55950000Y-79975000D03*
%TD*%
%TO.N,Net-(CONN2-Pin_2)*%
%TO.C,TP19*%
X129375000Y-153475000D03*
%TD*%
%TO.N,Net-(CONN4-Pin_8)*%
%TO.C,TP24*%
X57275000Y-67100000D03*
%TD*%
%TO.N,Net-(CONN3-Pin_2)*%
%TO.C,TP20*%
X200425000Y-150225000D03*
%TD*%
%TO.N,Net-(CONN3-Pin_6)*%
%TO.C,TP23*%
X200300000Y-142025000D03*
%TD*%
%TO.N,/EXCA*%
%TO.C,TP5*%
X133875000Y-44625000D03*
%TD*%
%TO.N,/BKIN*%
%TO.C,TP6*%
X104400000Y-120125000D03*
%TD*%
%TO.N,Net-(IC4-F)*%
%TO.C,TP2*%
X81825000Y-128150000D03*
%TD*%
%TO.N,/IL2_IN*%
%TO.C,TP3*%
X142400000Y-151250000D03*
%TD*%
%TO.N,/IL1_IN*%
%TO.C,TP4*%
X105050000Y-133375000D03*
%TD*%
%TO.N,/PWM A LO*%
%TO.C,TP9*%
X148875000Y-144175000D03*
%TD*%
%TO.N,/PWM B LO*%
%TO.C,TP8*%
X148950000Y-149500000D03*
%TD*%
%TO.N,/PWM C LO*%
%TO.C,TP7*%
X142375000Y-144300000D03*
%TD*%
%TO.N,/PWM C HI*%
%TO.C,TP10*%
X182875000Y-149800000D03*
%TD*%
%TO.N,/PWM B HI*%
%TO.C,TP12*%
X177750000Y-149725000D03*
%TD*%
%TO.N,/PWM A HI*%
%TO.C,TP11*%
X171925000Y-149550000D03*
%TD*%
D10*
%TO.N,GND*%
%TO.C,J1*%
X129050000Y-69550000D03*
D11*
%TO.N,+12P*%
X129050000Y-67010000D03*
%TD*%
D13*
%TO.N,GND*%
%TO.C,H7*%
X114015000Y-57065000D03*
X115255000Y-60435000D03*
X115535000Y-53375000D03*
X119115000Y-62155000D03*
X119125000Y-51975000D03*
D14*
X119125000Y-57075000D03*
D13*
X122435000Y-53195000D03*
X122485000Y-60895000D03*
X124215000Y-57075000D03*
%TD*%
D10*
%TO.N,GND*%
%TO.C,CONN3*%
X238000000Y-151500000D03*
D15*
%TO.N,Net-(CONN3-Pin_2)*%
X238000000Y-154040000D03*
%TO.N,/FAULT C HI*%
X235460000Y-151500000D03*
%TO.N,/PWM C HI*%
X235460000Y-154040000D03*
%TO.N,/I_C*%
X232920000Y-151500000D03*
%TO.N,Net-(CONN3-Pin_6)*%
X232920000Y-154040000D03*
%TO.N,/PWM C LO*%
X230380000Y-151500000D03*
%TO.N,/FAULT C LO*%
X230380000Y-154040000D03*
%TD*%
D10*
%TO.N,GND*%
%TO.C,CONN4*%
X65500000Y-45000000D03*
D15*
%TO.N,Net-(CONN4-Pin_2)*%
X65500000Y-47540000D03*
%TO.N,GND*%
X62960000Y-45000000D03*
%TO.N,/GATE PSU EN*%
X62960000Y-47540000D03*
%TO.N,unconnected-(CONN4-Pin_5-Pad5)*%
X60420000Y-45000000D03*
%TO.N,/GATE PSU STAT*%
X60420000Y-47540000D03*
%TO.N,+12V*%
X57880000Y-45000000D03*
%TO.N,Net-(CONN4-Pin_8)*%
X57880000Y-47540000D03*
%TD*%
D13*
%TO.N,GND*%
%TO.C,H1*%
X55375000Y-137155000D03*
X57220227Y-132700227D03*
X57220227Y-141609773D03*
X61675000Y-130855000D03*
D16*
X61675000Y-137155000D03*
D13*
X61675000Y-143455000D03*
X66129773Y-132700227D03*
X66129773Y-141609773D03*
X67975000Y-137155000D03*
%TD*%
D10*
%TO.N,GND*%
%TO.C,CONN1*%
X65500000Y-151500000D03*
D15*
%TO.N,/HS_TEMP*%
X65500000Y-154040000D03*
%TO.N,/FAULT A HI*%
X62960000Y-151500000D03*
%TO.N,/PWM A HI*%
X62960000Y-154040000D03*
%TO.N,/I_A*%
X60420000Y-151500000D03*
%TO.N,Net-(CONN1-Pin_6)*%
X60420000Y-154040000D03*
%TO.N,/PWM A LO*%
X57880000Y-151500000D03*
%TO.N,/FAULT A LO*%
X57880000Y-154040000D03*
%TD*%
D10*
%TO.N,GND*%
%TO.C,CONN2*%
X123000000Y-151500000D03*
D15*
%TO.N,Net-(CONN2-Pin_2)*%
X123000000Y-154040000D03*
%TO.N,/FAULT B HI*%
X120460000Y-151500000D03*
%TO.N,/PWM B HI*%
X120460000Y-154040000D03*
%TO.N,/I_B*%
X117920000Y-151500000D03*
%TO.N,+5V*%
X117920000Y-154040000D03*
%TO.N,/PWM B LO*%
X115380000Y-151500000D03*
%TO.N,/FAULT B LO*%
X115380000Y-154040000D03*
%TD*%
D13*
%TO.N,GND*%
%TO.C,H4*%
X171445000Y-57065000D03*
X172685000Y-60435000D03*
X172965000Y-53375000D03*
X176545000Y-62155000D03*
X176555000Y-51975000D03*
D14*
X176555000Y-57075000D03*
D13*
X179865000Y-53195000D03*
X179915000Y-60895000D03*
X181645000Y-57075000D03*
%TD*%
%TO.N,GND*%
%TO.C,H5*%
X56565000Y-57065000D03*
X57805000Y-60435000D03*
X58085000Y-53375000D03*
X61665000Y-62155000D03*
X61675000Y-51975000D03*
D14*
X61675000Y-57075000D03*
D13*
X64985000Y-53195000D03*
X65035000Y-60895000D03*
X66765000Y-57075000D03*
%TD*%
%TO.N,GND*%
%TO.C,H6*%
X171445000Y-137145000D03*
X172685000Y-140515000D03*
X172965000Y-133455000D03*
X176545000Y-142235000D03*
X176555000Y-132055000D03*
D14*
X176555000Y-137155000D03*
D13*
X179865000Y-133275000D03*
X179915000Y-140975000D03*
X181645000Y-137155000D03*
%TD*%
D10*
%TO.N,/SWDAT*%
%TO.C,J3*%
X176645000Y-94250000D03*
D11*
%TO.N,GND*%
X179185000Y-94250000D03*
%TO.N,/SWCLK*%
X181725000Y-94250000D03*
%TD*%
D10*
%TO.N,+5V*%
%TO.C,J2*%
X172195000Y-119600000D03*
D11*
%TO.N,unconnected-(J2-Pin_2-Pad2)*%
X174735000Y-119600000D03*
%TO.N,/USART_RX*%
X177275000Y-119600000D03*
%TO.N,/USART_TX*%
X179815000Y-119600000D03*
%TO.N,GND*%
X182355000Y-119600000D03*
%TD*%
D13*
%TO.N,GND*%
%TO.C,H3*%
X229115000Y-137145000D03*
X230355000Y-140515000D03*
X230635000Y-133455000D03*
X234215000Y-142235000D03*
X234225000Y-132055000D03*
D14*
X234225000Y-137155000D03*
D13*
X237535000Y-133275000D03*
X237585000Y-140975000D03*
X239315000Y-137155000D03*
%TD*%
D10*
%TO.N,GND*%
%TO.C,CONN5*%
X123000000Y-45000000D03*
D15*
%TO.N,+3V3*%
X123000000Y-47540000D03*
%TO.N,/LINK DISCH_OUT*%
X120460000Y-45000000D03*
%TO.N,+3V3*%
X120460000Y-47540000D03*
%TO.N,/VOUTP*%
X117920000Y-45000000D03*
%TO.N,/VOUTN*%
X117920000Y-47540000D03*
%TO.N,/S{slash}D HV CLK*%
X115380000Y-45000000D03*
%TO.N,/S{slash}D HV DATA*%
X115380000Y-47540000D03*
%TD*%
D13*
%TO.N,GND*%
%TO.C,H8*%
X229115000Y-57065000D03*
X230355000Y-60435000D03*
X230635000Y-53375000D03*
X234215000Y-62155000D03*
X234225000Y-51975000D03*
D14*
X234225000Y-57075000D03*
D13*
X237535000Y-53195000D03*
X237585000Y-60895000D03*
X239315000Y-57075000D03*
%TD*%
%TO.N,GND*%
%TO.C,H2*%
X114015000Y-137145000D03*
X115255000Y-140515000D03*
X115535000Y-133455000D03*
X119115000Y-142235000D03*
X119125000Y-132055000D03*
D14*
X119125000Y-137155000D03*
D13*
X122435000Y-133275000D03*
X122485000Y-140975000D03*
X124215000Y-137155000D03*
%TD*%
D17*
%TO.N,GND*%
X167900000Y-59725000D03*
%TO.N,Net-(C3-Pad1)*%
X157775000Y-87750000D03*
%TO.N,/8Mhz Clock*%
X73425000Y-89725000D03*
%TO.N,/GATE PSU STAT IN*%
X64750000Y-72525000D03*
X72525000Y-72225000D03*
X131850000Y-94625000D03*
%TO.N,/GATE PSU EN*%
X81950000Y-93700000D03*
%TO.N,/MAIN_PSU_EN*%
X93100000Y-93425000D03*
%TO.N,GND*%
X77425000Y-91500000D03*
X77425000Y-93125000D03*
%TO.N,+3V3*%
X83150000Y-93425000D03*
%TO.N,GND*%
X86300000Y-91950000D03*
%TO.N,/PWM A LO*%
X154525000Y-143950000D03*
%TO.N,/PWM B HI*%
X161700000Y-152875000D03*
%TO.N,+3V3*%
X72475000Y-153075000D03*
%TO.N,Net-(CONN1-Pin_6)*%
X68875000Y-154900000D03*
%TO.N,/LINK DISCH*%
X153050000Y-98675000D03*
%TO.N,/LINK DISCH_OUT*%
X107875000Y-43825000D03*
%TO.N,Net-(IC3-INPUT-(1)_1)*%
X162700000Y-78125000D03*
X155400000Y-79750000D03*
D18*
%TO.N,+12V*%
X153975000Y-86900000D03*
D17*
%TO.N,/HFEXC*%
X162325000Y-101050000D03*
X162450000Y-93700000D03*
%TO.N,/EXC_OUT*%
X160800000Y-98500000D03*
X162475000Y-92350000D03*
%TO.N,/REV_IN*%
X186225000Y-117725000D03*
D18*
X150250000Y-119125000D03*
%TO.N,/MAIN_PSU_EN*%
X140950000Y-91475000D03*
%TO.N,GND*%
X149100000Y-78100000D03*
D17*
X153850000Y-79400000D03*
%TO.N,+12V*%
X111300000Y-78925000D03*
D19*
X143650000Y-81550000D03*
X143650000Y-80000000D03*
X112462500Y-87412500D03*
X143475000Y-78725000D03*
D18*
%TO.N,GND*%
X129025000Y-148800000D03*
X195800000Y-100200000D03*
X229325000Y-87950000D03*
X213275000Y-87900000D03*
X134250000Y-151850000D03*
X115460000Y-119364000D03*
D19*
X104900000Y-104575000D03*
D18*
X77250000Y-151275000D03*
D17*
X63916000Y-98536000D03*
D18*
X134558000Y-136327750D03*
X165516000Y-77200000D03*
X115478000Y-122920000D03*
D19*
X104925000Y-95325000D03*
D17*
X148498000Y-67294000D03*
X144100000Y-109100000D03*
D18*
X131400000Y-90850000D03*
X155875000Y-48275000D03*
D17*
X151375000Y-116775000D03*
D18*
X154450000Y-45000000D03*
X232925000Y-95500000D03*
X135150000Y-79800000D03*
D19*
X104925000Y-92900000D03*
D18*
X132625000Y-79775000D03*
X137300000Y-90850000D03*
X216550000Y-120850000D03*
D17*
X142850000Y-110175000D03*
D18*
X78902000Y-115808000D03*
D17*
X156300000Y-126450000D03*
D18*
X216325000Y-105725000D03*
X129448000Y-113522000D03*
D19*
X104950000Y-88275000D03*
D18*
X77375000Y-143425000D03*
X216625000Y-95550000D03*
D17*
X146875000Y-100825000D03*
D18*
X133975000Y-90850000D03*
X97698000Y-126476000D03*
X161706000Y-79486000D03*
D19*
X104925000Y-97550000D03*
D18*
X122717000Y-73009000D03*
X213350000Y-115100000D03*
X134375000Y-147950000D03*
D17*
X157642000Y-133588000D03*
X137576000Y-110220000D03*
D18*
X229375000Y-114525000D03*
X89550000Y-148700000D03*
X180675000Y-104250000D03*
D19*
X104975000Y-99875000D03*
D17*
X175829500Y-85666000D03*
X175829500Y-82110000D03*
X171125000Y-98650000D03*
X147736000Y-139938000D03*
D18*
X198925000Y-122950000D03*
X195750000Y-114850000D03*
D17*
X159150000Y-79850000D03*
X67350000Y-82175000D03*
D18*
X112252000Y-113700000D03*
D17*
X162800000Y-89125000D03*
D18*
X147990000Y-116824000D03*
X231302000Y-71612000D03*
D17*
X161700000Y-116441000D03*
D19*
X104900000Y-90600000D03*
X104925000Y-107250000D03*
D18*
X183675000Y-70125000D03*
D17*
X153550000Y-92625000D03*
D18*
X137250000Y-88250000D03*
X61122000Y-108442000D03*
X121320000Y-73525000D03*
X198650000Y-107900000D03*
X132242000Y-106410000D03*
X229375000Y-100225000D03*
X220575000Y-142075000D03*
X199000000Y-105575000D03*
X123606000Y-72120000D03*
X195725000Y-87700000D03*
X76870000Y-83042000D03*
X102778000Y-115554000D03*
X213400000Y-100100000D03*
X85760000Y-108442000D03*
D17*
X71464000Y-91750000D03*
D18*
X74584000Y-118348000D03*
D17*
X158658000Y-139938000D03*
D18*
X214250000Y-145800000D03*
D17*
X94950000Y-81300000D03*
X138338000Y-67040000D03*
D18*
X154175000Y-71525000D03*
D17*
X154775000Y-84800000D03*
D18*
X148525000Y-49575000D03*
X216425000Y-108025000D03*
D17*
X61630000Y-95488000D03*
D18*
X232775000Y-108075000D03*
X158658000Y-77200000D03*
X232775000Y-105550000D03*
X170375000Y-73100000D03*
X109200000Y-150525000D03*
X216525000Y-123525000D03*
D17*
X62138000Y-92694000D03*
D18*
X148650000Y-45975000D03*
X130718000Y-106410000D03*
D17*
X61122000Y-87360000D03*
D18*
X207425000Y-96175000D03*
D17*
%TO.N,/LINK DISCH*%
X61650000Y-84925000D03*
%TO.N,GND*%
X137275000Y-100775000D03*
D18*
X135050000Y-88275000D03*
X216725000Y-93200000D03*
D17*
X142300000Y-97400000D03*
D18*
X89525000Y-152575000D03*
X131500000Y-75525000D03*
D17*
X163738000Y-121650000D03*
D18*
X134304000Y-139883750D03*
D17*
X94925000Y-86800000D03*
X157850000Y-85700000D03*
D18*
X133150000Y-88325000D03*
X115460000Y-121142000D03*
X239430000Y-83042000D03*
X113954000Y-113700000D03*
X89062000Y-123428000D03*
X198925000Y-120750000D03*
D19*
X104925000Y-102075000D03*
D17*
X152425000Y-103075000D03*
D18*
X115732000Y-113700000D03*
X154200000Y-69250000D03*
X62646000Y-116062000D03*
D17*
X147240000Y-133600000D03*
D18*
X232975000Y-122850000D03*
X232875000Y-93600000D03*
D17*
X154594000Y-65770000D03*
D18*
X207450000Y-93425000D03*
D19*
%TO.N,+5V*%
X113500000Y-93525000D03*
D18*
X125638000Y-116062000D03*
X97952000Y-113776000D03*
D17*
X67472000Y-90154000D03*
D18*
X67472000Y-112252000D03*
D19*
X115575000Y-104450000D03*
D17*
X109000000Y-82325000D03*
D19*
X116425000Y-100425000D03*
D18*
X233000000Y-120400000D03*
X64678000Y-116062000D03*
X239430000Y-79486000D03*
D19*
X116650000Y-91275000D03*
D18*
X124114000Y-116062000D03*
X122336000Y-116062000D03*
X122590000Y-111490000D03*
X124622000Y-111490000D03*
X152300000Y-61195243D03*
D17*
X159166000Y-119872000D03*
D18*
X159928000Y-41894000D03*
D19*
X113225000Y-103775000D03*
X115825000Y-102775000D03*
D18*
%TO.N,+3V3*%
X85989000Y-83271000D03*
X120304000Y-119618000D03*
X122082000Y-104378000D03*
X118526000Y-119618000D03*
X145375000Y-41725000D03*
D17*
X162722000Y-133588000D03*
X62600000Y-82175000D03*
X145975000Y-116975000D03*
X147575000Y-101575000D03*
D18*
X124368000Y-104632000D03*
D17*
X146000000Y-116250000D03*
X165975000Y-116316000D03*
X173750000Y-90325000D03*
D18*
X119796000Y-110728000D03*
D17*
X167650000Y-97150000D03*
X146825000Y-96150000D03*
D18*
X180200000Y-105650000D03*
D17*
X152308000Y-133334000D03*
X151625000Y-92650000D03*
D18*
X119542000Y-104124000D03*
X153475000Y-41750000D03*
D17*
X154525000Y-115350000D03*
D18*
X118526000Y-109458000D03*
X180100000Y-68325000D03*
%TO.N,/FAULT A LO*%
X62500000Y-148025000D03*
%TO.N,/PWM A HI*%
X163850000Y-137925000D03*
%TO.N,/I_A*%
X89375000Y-145325000D03*
%TO.N,/PWM B HI*%
X161775000Y-140150000D03*
%TO.N,/PWM C HI*%
X164975000Y-155450000D03*
%TO.N,/PWM C LO*%
X145375000Y-137850000D03*
X155025000Y-154975000D03*
%TO.N,/EXCA*%
X158700000Y-67400000D03*
X151700000Y-51725000D03*
D17*
%TO.N,/TMPM1_IN*%
X241716000Y-127238000D03*
X160944000Y-105394000D03*
%TO.N,/TMPWTR_IN*%
X170342000Y-86090000D03*
X163992000Y-105648000D03*
%TO.N,/TMPM2_IN*%
X232064000Y-81518000D03*
X149380000Y-110100000D03*
%TO.N,/T15_OUT*%
X152308000Y-110474000D03*
X170596000Y-107172000D03*
X89316000Y-80248000D03*
X158150000Y-106918000D03*
%TO.N,/WTR_TMP1*%
X157642000Y-53070000D03*
X157642000Y-45196000D03*
D18*
%TO.N,/IL1_IN*%
X65186000Y-120888000D03*
X65694000Y-125206000D03*
D17*
X154340000Y-114030000D03*
X105064000Y-140700000D03*
X103794000Y-154162000D03*
D18*
%TO.N,/IL2_IN*%
X75600000Y-120888000D03*
X140878000Y-148066000D03*
D17*
X157134000Y-118348000D03*
X154594000Y-130540000D03*
%TO.N,/UDC_IN*%
X97952000Y-98790000D03*
X148446238Y-106425000D03*
%TO.N,/ENC_B*%
X153832000Y-107680000D03*
X146466000Y-68564000D03*
X148498000Y-88975000D03*
X148498000Y-92186000D03*
%TO.N,/ENC_A*%
X154198000Y-109077000D03*
X145800000Y-88700000D03*
X145450000Y-91678000D03*
X135290000Y-69072000D03*
%TO.N,/FWD_IN*%
X153798504Y-109770114D03*
X170088000Y-111236000D03*
%TO.N,/REV_IN*%
X220000000Y-110250000D03*
%TO.N,/START_IN*%
X157000000Y-87050000D03*
X191900000Y-99550000D03*
%TO.N,/BRAKE_IN*%
X164246000Y-99806000D03*
X240192000Y-94218000D03*
%TO.N,/CRUISE_IN*%
X236000000Y-110950000D03*
X157600000Y-88650000D03*
%TO.N,/THROTTLE 1 IN*%
X188600000Y-109850000D03*
X160436000Y-104378000D03*
%TO.N,/THROTTLE 2 IN*%
X161198000Y-103616000D03*
X202600000Y-125050000D03*
X187400000Y-103450000D03*
%TO.N,/TMPHS_IN*%
X130210000Y-122666000D03*
X128686000Y-132572000D03*
D18*
%TO.N,/FAULT B LO*%
X109925000Y-154150000D03*
%TO.N,/FAULT C LO*%
X219000000Y-148175000D03*
D17*
%TO.N,/PWM_1N*%
X145704000Y-135620000D03*
X157388000Y-110474000D03*
%TO.N,/OCUR_NEG*%
X155864000Y-98536000D03*
X150784000Y-121904000D03*
%TO.N,/PWM_3P*%
X169072000Y-101838000D03*
X164754000Y-139176000D03*
%TO.N,/PWM_3N*%
X163484000Y-108696000D03*
X151546000Y-140192000D03*
%TO.N,/PWM_1P*%
X156626000Y-136128000D03*
X159420000Y-114538000D03*
%TO.N,/PWM_2N*%
X163992000Y-109712000D03*
X146974000Y-141716000D03*
%TO.N,/PWM_2P*%
X160690000Y-135366000D03*
X167548000Y-102346000D03*
%TO.N,/OCUR_POS*%
X154848000Y-98790000D03*
X152054000Y-122575000D03*
D18*
%TO.N,/CANH*%
X170350000Y-71550000D03*
X163087500Y-51662500D03*
D17*
%TO.N,/RES_COSB*%
X138592000Y-62214000D03*
X150022000Y-61452000D03*
%TO.N,/FORWARD*%
X160300000Y-49750000D03*
X160350000Y-47150000D03*
%TO.N,/REVERSE*%
X213275000Y-97150000D03*
X156150000Y-61600000D03*
%TO.N,/START*%
X210050000Y-86600000D03*
X164275000Y-50475000D03*
%TO.N,/BRAKE*%
X241700000Y-87700000D03*
X152950000Y-62468000D03*
%TO.N,/CRUISE*%
X149250000Y-60650000D03*
X234650000Y-97525000D03*
%TO.N,/THROTTLE 1*%
X218325000Y-111150000D03*
X154175000Y-61100000D03*
%TO.N,/THROTTLE 2*%
X211750000Y-90550000D03*
X156900000Y-50500000D03*
%TO.N,/HS_TEMP*%
X134528000Y-132572000D03*
X111160000Y-150352000D03*
%TO.N,/MOT_TMP1*%
X155900000Y-53250000D03*
X158650000Y-45650000D03*
%TO.N,/MOT_TMP2*%
X168564000Y-45704000D03*
X155102000Y-61960000D03*
%TO.N,/8Mhz Clock*%
X163738000Y-102600000D03*
X98714000Y-89646000D03*
D18*
%TO.N,Net-(IC4-A)*%
X82204000Y-138160000D03*
X86014000Y-115554000D03*
%TO.N,Net-(IC4-G)*%
X99730000Y-119364000D03*
X170088000Y-154670000D03*
%TO.N,Net-(IC4-D)*%
X87538000Y-141208000D03*
X87538000Y-119364000D03*
%TO.N,Net-(IC4-E)*%
X125384000Y-148320000D03*
X93126000Y-138668000D03*
D17*
%TO.N,Net-(IC12-2Y)*%
X62392000Y-83550000D03*
X59852000Y-83042000D03*
%TO.N,/MAIN_PSU_EN*%
X91856000Y-86852000D03*
X164500000Y-94218000D03*
D18*
%TO.N,Net-(IC4-F)*%
X77124000Y-118094000D03*
X83982000Y-121904000D03*
D17*
%TO.N,/USART_TX*%
X165262000Y-122412000D03*
%TO.N,/USART_RX*%
X166024000Y-121142000D03*
%TD*%
D20*
%TO.N,Net-(CONN3-Pin_6)*%
X232920000Y-154040000D02*
X232920000Y-156455000D01*
X232920000Y-156455000D02*
X232400000Y-156975000D01*
X232400000Y-156975000D02*
X232375000Y-156950000D01*
X232375000Y-156950000D02*
X206700000Y-156950000D01*
X206700000Y-156950000D02*
X205525000Y-155775000D01*
X205525000Y-155775000D02*
X205525000Y-144200000D01*
X205525000Y-144200000D02*
X203350000Y-142025000D01*
X203350000Y-142025000D02*
X200300000Y-142025000D01*
%TO.N,Net-(CONN3-Pin_2)*%
X238000000Y-154040000D02*
X238000000Y-156825000D01*
X238000000Y-156825000D02*
X237100000Y-157725000D01*
X237100000Y-157725000D02*
X202650000Y-157725000D01*
X202650000Y-157725000D02*
X200425000Y-155500000D01*
X200425000Y-155500000D02*
X200425000Y-150225000D01*
%TO.N,/GATE PSU STAT IN*%
X131850000Y-94625000D02*
X105875000Y-94625000D01*
X105875000Y-94625000D02*
X105400000Y-94150000D01*
X105400000Y-94150000D02*
X98200000Y-94150000D01*
X98200000Y-94150000D02*
X93050000Y-89000000D01*
X93050000Y-89000000D02*
X84050000Y-89000000D01*
X84050000Y-89000000D02*
X79875000Y-84825000D01*
X79875000Y-84825000D02*
X73950000Y-84825000D01*
X73950000Y-84825000D02*
X72525000Y-83400000D01*
X72525000Y-83400000D02*
X72525000Y-72225000D01*
%TO.N,/GATE PSU EN*%
X81950000Y-93700000D02*
X81950000Y-89350000D01*
X81950000Y-89350000D02*
X80800000Y-88200000D01*
X80800000Y-88200000D02*
X72525000Y-88200000D01*
X69325000Y-49825000D02*
X63425000Y-49825000D01*
X72525000Y-88200000D02*
X71250000Y-86925000D01*
X71250000Y-86925000D02*
X71250000Y-51750000D01*
X71250000Y-51750000D02*
X69325000Y-49825000D01*
X63425000Y-49825000D02*
X62960000Y-49360000D01*
X62960000Y-49360000D02*
X62960000Y-47540000D01*
%TO.N,/PWM B HI*%
X174600000Y-152875000D02*
X161700000Y-152875000D01*
X177750000Y-149725000D02*
X174600000Y-152875000D01*
D21*
%TO.N,Net-(CONN1-Pin_6)*%
X68875000Y-156025000D02*
X68875000Y-154900000D01*
X68900000Y-156050000D02*
X68875000Y-156025000D01*
X60420000Y-156145000D02*
X61100000Y-156825000D01*
X60420000Y-154040000D02*
X60420000Y-156145000D01*
X68125000Y-156825000D02*
X68900000Y-156050000D01*
X61100000Y-156825000D02*
X68125000Y-156825000D01*
D20*
%TO.N,/LINK DISCH*%
X153050000Y-98675000D02*
X146350000Y-98675000D01*
X146350000Y-98675000D02*
X145775000Y-98100000D01*
X145775000Y-98100000D02*
X108400000Y-98100000D01*
X108400000Y-98100000D02*
X106850000Y-96550000D01*
X66400000Y-94525000D02*
X62050000Y-90175000D01*
X106850000Y-96550000D02*
X98225000Y-96550000D01*
X96200000Y-94525000D02*
X66400000Y-94525000D01*
X98225000Y-96550000D02*
X96200000Y-94525000D01*
X62050000Y-90175000D02*
X62050000Y-85325000D01*
X62050000Y-85325000D02*
X61650000Y-84925000D01*
D22*
%TO.N,+12V*%
X143650000Y-80000000D02*
X143650000Y-78900000D01*
X143650000Y-78900000D02*
X143475000Y-78725000D01*
X143650000Y-81550000D02*
X143650000Y-80000000D01*
X144750000Y-86900000D02*
X143625000Y-85775000D01*
X143625000Y-85775000D02*
X143625000Y-81575000D01*
X153975000Y-86900000D02*
X144750000Y-86900000D01*
X143625000Y-81575000D02*
X143650000Y-81550000D01*
D20*
%TO.N,/REV_IN*%
X150250000Y-119125000D02*
X150133000Y-119242000D01*
X150133000Y-119242000D02*
X150133000Y-130033000D01*
X150133000Y-130033000D02*
X151350000Y-131250000D01*
X151350000Y-131250000D02*
X162200000Y-131250000D01*
X165550000Y-127900000D02*
X185425000Y-127900000D01*
X186225000Y-127100000D02*
X186225000Y-117725000D01*
X162200000Y-131250000D02*
X165550000Y-127900000D01*
X185425000Y-127900000D02*
X186225000Y-127100000D01*
%TO.N,/TMPM1_IN*%
X187614000Y-115554000D02*
X189138000Y-117078000D01*
X160944000Y-105394000D02*
X161967000Y-106417000D01*
X189138000Y-117078000D02*
X189138000Y-125206000D01*
X182280000Y-115554000D02*
X187614000Y-115554000D01*
X192440000Y-128508000D02*
X240446000Y-128508000D01*
X240446000Y-128508000D02*
X241716000Y-127238000D01*
X189138000Y-125206000D02*
X192440000Y-128508000D01*
X161967000Y-106417000D02*
X173143000Y-106417000D01*
X173143000Y-106417000D02*
X182280000Y-115554000D01*
%TO.N,/TMPM2_IN*%
X151038000Y-131810000D02*
X163484000Y-131810000D01*
X149380000Y-110100000D02*
X149380000Y-130152000D01*
X166024000Y-129270000D02*
X241716000Y-129270000D01*
X243494000Y-127492000D02*
X243494000Y-83550000D01*
X241716000Y-129270000D02*
X243494000Y-127492000D01*
X241462000Y-81518000D02*
X232064000Y-81518000D01*
X163484000Y-131810000D02*
X166024000Y-129270000D01*
X149380000Y-130152000D02*
X151038000Y-131810000D01*
X243494000Y-83550000D02*
X241462000Y-81518000D01*
%TO.N,/T15_OUT*%
X170342000Y-106918000D02*
X170596000Y-107172000D01*
X158150000Y-106918000D02*
X170342000Y-106918000D01*
%TO.N,/WTR_TMP1*%
X157642000Y-53070000D02*
X157642000Y-45196000D01*
%TO.N,/IL1_IN*%
X103794000Y-154162000D02*
X105064000Y-152892000D01*
X105064000Y-152892000D02*
X105064000Y-140700000D01*
%TO.N,/IL2_IN*%
X157134000Y-118348000D02*
X157134000Y-128000000D01*
X157134000Y-128000000D02*
X154594000Y-130540000D01*
%TO.N,/UDC_IN*%
X148446238Y-106425000D02*
X148431238Y-106410000D01*
X146720000Y-106410000D02*
X144942000Y-104632000D01*
X148431238Y-106410000D02*
X146720000Y-106410000D01*
X144942000Y-104632000D02*
X144942000Y-100314000D01*
X144942000Y-100314000D02*
X143418000Y-98790000D01*
X143418000Y-98790000D02*
X97952000Y-98790000D01*
%TO.N,/FWD_IN*%
X162526114Y-109770114D02*
X163992000Y-111236000D01*
X153798504Y-109770114D02*
X162526114Y-109770114D01*
X163992000Y-111236000D02*
X170088000Y-111236000D01*
D23*
%TO.N,/START_IN*%
X183200000Y-87050000D02*
X191900000Y-95750000D01*
X157000000Y-87050000D02*
X183200000Y-87050000D01*
X191900000Y-95750000D02*
X191900000Y-99550000D01*
D20*
%TO.N,/BRAKE_IN*%
X193456000Y-127746000D02*
X239176000Y-127746000D01*
X240954000Y-125968000D02*
X240954000Y-94980000D01*
X164246000Y-99806000D02*
X188884000Y-99806000D01*
X190408000Y-124698000D02*
X193456000Y-127746000D01*
X190408000Y-101330000D02*
X190408000Y-124698000D01*
X188884000Y-99806000D02*
X190408000Y-101330000D01*
X240954000Y-94980000D02*
X240192000Y-94218000D01*
X239176000Y-127746000D02*
X240954000Y-125968000D01*
D23*
%TO.N,/CRUISE_IN*%
X208500000Y-110750000D02*
X210500000Y-112750000D01*
X191500000Y-101250000D02*
X205000000Y-101250000D01*
X157753000Y-88497000D02*
X182647000Y-88497000D01*
X208500000Y-104750000D02*
X208500000Y-110750000D01*
X157600000Y-88650000D02*
X157753000Y-88497000D01*
X190600000Y-96450000D02*
X190600000Y-100350000D01*
X234200000Y-112750000D02*
X236000000Y-110950000D01*
X182647000Y-88497000D02*
X190600000Y-96450000D01*
X205000000Y-101250000D02*
X208500000Y-104750000D01*
X210500000Y-112750000D02*
X234200000Y-112750000D01*
X190600000Y-100350000D02*
X191500000Y-101250000D01*
%TO.N,/THROTTLE 1 IN*%
X160436000Y-104378000D02*
X173128000Y-104378000D01*
X188300000Y-110150000D02*
X188600000Y-109850000D01*
X173128000Y-104378000D02*
X178900000Y-110150000D01*
X178900000Y-110150000D02*
X188300000Y-110150000D01*
%TO.N,/THROTTLE 2 IN*%
X161198000Y-103616000D02*
X161392000Y-103422000D01*
X161392000Y-103422000D02*
X187372000Y-103422000D01*
X187372000Y-103422000D02*
X187400000Y-103450000D01*
D20*
%TO.N,/TMPHS_IN*%
X130210000Y-131048000D02*
X128686000Y-132572000D01*
X130210000Y-122666000D02*
X130210000Y-131048000D01*
%TO.N,/OCUR_NEG*%
X152816000Y-107426000D02*
X155610000Y-104632000D01*
X152562000Y-120126000D02*
X152562000Y-111125000D01*
X155610000Y-98790000D02*
X155864000Y-98536000D01*
X152959000Y-110743654D02*
X152959000Y-109823000D01*
X152577654Y-111125000D02*
X152959000Y-110743654D01*
X152816000Y-109823000D02*
X152816000Y-107426000D01*
X152959000Y-109823000D02*
X152816000Y-109823000D01*
X152562000Y-111125000D02*
X152577654Y-111125000D01*
X150784000Y-121904000D02*
X152562000Y-120126000D01*
X155610000Y-104632000D02*
X155610000Y-98790000D01*
D21*
%TO.N,/RES_COSB*%
X150022000Y-61452000D02*
X150022000Y-61960000D01*
X149260000Y-62722000D02*
X139100000Y-62722000D01*
X150022000Y-61960000D02*
X149260000Y-62722000D01*
X139100000Y-62722000D02*
X138592000Y-62214000D01*
%TO.N,/REVERSE*%
X156150000Y-63475000D02*
X156150000Y-61600000D01*
X187587926Y-84950000D02*
X185225000Y-82587074D01*
X213275000Y-90250000D02*
X210975000Y-87950000D01*
X201975000Y-84950000D02*
X187587926Y-84950000D01*
X210975000Y-87950000D02*
X204975000Y-87950000D01*
X184175000Y-65400000D02*
X158075000Y-65400000D01*
X185225000Y-82587074D02*
X185225000Y-66450000D01*
X185225000Y-66450000D02*
X184175000Y-65400000D01*
X158075000Y-65400000D02*
X156150000Y-63475000D01*
X213275000Y-97150000D02*
X213275000Y-90250000D01*
X204975000Y-87950000D02*
X201975000Y-84950000D01*
%TO.N,/THROTTLE 1*%
X210225000Y-108000000D02*
X210225000Y-90675000D01*
X208750000Y-89200000D02*
X187350000Y-89200000D01*
X213375000Y-111150000D02*
X210225000Y-108000000D01*
X182075000Y-83925000D02*
X182075000Y-68075000D01*
X187350000Y-89200000D02*
X182075000Y-83925000D01*
X156950000Y-66375000D02*
X154175000Y-63600000D01*
X154175000Y-63600000D02*
X154175000Y-61100000D01*
X182075000Y-68075000D02*
X180375000Y-66375000D01*
X180375000Y-66375000D02*
X156950000Y-66375000D01*
X210225000Y-90675000D02*
X208750000Y-89200000D01*
X218325000Y-111150000D02*
X213375000Y-111150000D01*
%TO.N,/HS_TEMP*%
X132242000Y-146034000D02*
X132242000Y-135620000D01*
X134528000Y-133334000D02*
X134528000Y-132572000D01*
X113192000Y-147304000D02*
X130972000Y-147304000D01*
X132242000Y-135620000D02*
X134528000Y-133334000D01*
X111160000Y-149336000D02*
X113192000Y-147304000D01*
X130972000Y-147304000D02*
X132242000Y-146034000D01*
X111160000Y-150352000D02*
X111160000Y-149336000D01*
%TO.N,/MOT_TMP2*%
X155102000Y-57134000D02*
X155102000Y-61960000D01*
X167548000Y-53832000D02*
X164754000Y-56626000D01*
X164754000Y-56626000D02*
X155610000Y-56626000D01*
X167548000Y-46720000D02*
X167548000Y-53832000D01*
X155610000Y-56626000D02*
X155102000Y-57134000D01*
X168564000Y-45704000D02*
X167548000Y-46720000D01*
D20*
%TO.N,/8Mhz Clock*%
X163230000Y-102092000D02*
X163738000Y-102600000D01*
X163230000Y-91424000D02*
X163230000Y-102092000D01*
X161452000Y-89646000D02*
X163230000Y-91424000D01*
X98714000Y-89646000D02*
X161452000Y-89646000D01*
D21*
%TO.N,Net-(IC4-A)*%
X86014000Y-134350000D02*
X86014000Y-115554000D01*
X82204000Y-138160000D02*
X86014000Y-134350000D01*
%TO.N,Net-(IC4-G)*%
X167040000Y-157718000D02*
X104048000Y-157718000D01*
X170088000Y-154670000D02*
X167040000Y-157718000D01*
X104048000Y-157718000D02*
X100238000Y-153908000D01*
X100238000Y-153908000D02*
X100238000Y-119872000D01*
X100238000Y-119872000D02*
X99730000Y-119364000D01*
%TO.N,Net-(IC4-D)*%
X87538000Y-141208000D02*
X87538000Y-119364000D01*
D20*
%TO.N,/USART_TX*%
X179815000Y-119600000D02*
X179815000Y-122083000D01*
X165516000Y-122666000D02*
X165262000Y-122412000D01*
X179232000Y-122666000D02*
X165516000Y-122666000D01*
X179815000Y-122083000D02*
X179232000Y-122666000D01*
%TO.N,/USART_RX*%
X166786000Y-121904000D02*
X176946000Y-121904000D01*
X166024000Y-121142000D02*
X166786000Y-121904000D01*
X177200000Y-121650000D02*
X177200000Y-119675000D01*
X176946000Y-121904000D02*
X177200000Y-121650000D01*
%TD*%
M02*
