%TF.GenerationSoftware,KiCad,Pcbnew,9.0.8-9.0.8~ubuntu22.04.1*%
%TF.CreationDate,2026-03-28T09:58:10+00:00*%
%TF.ProjectId,FDU_V1,4644555f-5631-42e6-9b69-6361645f7063,rev?*%
%TF.SameCoordinates,Original*%
%TF.FileFunction,Soldermask,Top*%
%TF.FilePolarity,Negative*%
%FSLAX46Y46*%
G04 Gerber Fmt 4.6, Leading zero omitted, Abs format (unit mm)*
G04 Created by KiCad (PCBNEW 9.0.8-9.0.8~ubuntu22.04.1) date 2026-03-28 09:58:10*
%MOMM*%
%LPD*%
G01*
G04 APERTURE LIST*
G04 Aperture macros list*
%AMRoundRect*
0 Rectangle with rounded corners*
0 $1 Rounding radius*
0 $2 $3 $4 $5 $6 $7 $8 $9 X,Y pos of 4 corners*
0 Add a 4 corners polygon primitive as box body*
4,1,4,$2,$3,$4,$5,$6,$7,$8,$9,$2,$3,0*
0 Add four circle primitives for the rounded corners*
1,1,$1+$1,$2,$3*
1,1,$1+$1,$4,$5*
1,1,$1+$1,$6,$7*
1,1,$1+$1,$8,$9*
0 Add four rect primitives between the rounded corners*
20,1,$1+$1,$2,$3,$4,$5,0*
20,1,$1+$1,$4,$5,$6,$7,0*
20,1,$1+$1,$6,$7,$8,$9,0*
20,1,$1+$1,$8,$9,$2,$3,0*%
%AMFreePoly0*
4,1,23,0.500000,-0.750000,0.000000,-0.750000,0.000000,-0.745722,-0.065263,-0.745722,-0.191342,-0.711940,-0.304381,-0.646677,-0.396677,-0.554381,-0.461940,-0.441342,-0.495722,-0.315263,-0.495722,-0.250000,-0.500000,-0.250000,-0.500000,0.250000,-0.495722,0.250000,-0.495722,0.315263,-0.461940,0.441342,-0.396677,0.554381,-0.304381,0.646677,-0.191342,0.711940,-0.065263,0.745722,0.000000,0.745722,
0.000000,0.750000,0.500000,0.750000,0.500000,-0.750000,0.500000,-0.750000,$1*%
%AMFreePoly1*
4,1,23,0.000000,0.745722,0.065263,0.745722,0.191342,0.711940,0.304381,0.646677,0.396677,0.554381,0.461940,0.441342,0.495722,0.315263,0.495722,0.250000,0.500000,0.250000,0.500000,-0.250000,0.495722,-0.250000,0.495722,-0.315263,0.461940,-0.441342,0.396677,-0.554381,0.304381,-0.646677,0.191342,-0.711940,0.065263,-0.745722,0.000000,-0.745722,0.000000,-0.750000,-0.500000,-0.750000,
-0.500000,0.750000,0.000000,0.750000,0.000000,0.745722,0.000000,0.745722,$1*%
G04 Aperture macros list end*
%ADD10C,2.000000*%
%ADD11RoundRect,0.250000X-0.262500X-0.450000X0.262500X-0.450000X0.262500X0.450000X-0.262500X0.450000X0*%
%ADD12RoundRect,0.250000X-0.625000X0.375000X-0.625000X-0.375000X0.625000X-0.375000X0.625000X0.375000X0*%
%ADD13RoundRect,0.250000X0.262500X0.450000X-0.262500X0.450000X-0.262500X-0.450000X0.262500X-0.450000X0*%
%ADD14RoundRect,0.250000X-0.250000X-0.475000X0.250000X-0.475000X0.250000X0.475000X-0.250000X0.475000X0*%
%ADD15RoundRect,0.250000X0.250000X0.475000X-0.250000X0.475000X-0.250000X-0.475000X0.250000X-0.475000X0*%
%ADD16RoundRect,0.150000X-0.587500X-0.150000X0.587500X-0.150000X0.587500X0.150000X-0.587500X0.150000X0*%
%ADD17C,1.100000*%
%ADD18C,12.000000*%
%ADD19R,2.200000X1.550000*%
%ADD20RoundRect,0.250000X1.750000X1.000000X-1.750000X1.000000X-1.750000X-1.000000X1.750000X-1.000000X0*%
%ADD21RoundRect,0.250000X0.420000X0.945000X-0.420000X0.945000X-0.420000X-0.945000X0.420000X-0.945000X0*%
%ADD22RoundRect,0.250000X-0.420000X-0.945000X0.420000X-0.945000X0.420000X0.945000X-0.420000X0.945000X0*%
%ADD23RoundRect,0.250000X-0.475000X0.250000X-0.475000X-0.250000X0.475000X-0.250000X0.475000X0.250000X0*%
%ADD24R,2.900000X5.400000*%
%ADD25R,1.200000X0.600000*%
%ADD26R,1.700000X1.700000*%
%ADD27O,1.700000X1.700000*%
%ADD28R,0.600000X1.500000*%
%ADD29R,0.800000X1.800000*%
%ADD30R,1.525000X0.650000*%
%ADD31C,16.800000*%
%ADD32RoundRect,0.100000X-0.350000X-0.100000X0.350000X-0.100000X0.350000X0.100000X-0.350000X0.100000X0*%
%ADD33RoundRect,0.150000X-0.825000X-0.150000X0.825000X-0.150000X0.825000X0.150000X-0.825000X0.150000X0*%
%ADD34R,0.850000X0.300000*%
%ADD35RoundRect,0.150000X0.825000X0.150000X-0.825000X0.150000X-0.825000X-0.150000X0.825000X-0.150000X0*%
%ADD36R,2.820000X1.990000*%
%ADD37RoundRect,0.100000X0.712500X0.100000X-0.712500X0.100000X-0.712500X-0.100000X0.712500X-0.100000X0*%
%ADD38RoundRect,0.218750X0.218750X0.381250X-0.218750X0.381250X-0.218750X-0.381250X0.218750X-0.381250X0*%
%ADD39R,2.050000X2.250000*%
%ADD40R,2.700000X3.600000*%
%ADD41RoundRect,0.375000X0.375000X-0.625000X0.375000X0.625000X-0.375000X0.625000X-0.375000X-0.625000X0*%
%ADD42RoundRect,0.500000X1.400000X-0.500000X1.400000X0.500000X-1.400000X0.500000X-1.400000X-0.500000X0*%
%ADD43RoundRect,0.075000X-0.725000X-0.075000X0.725000X-0.075000X0.725000X0.075000X-0.725000X0.075000X0*%
%ADD44RoundRect,0.075000X-0.075000X-0.725000X0.075000X-0.725000X0.075000X0.725000X-0.075000X0.725000X0*%
%ADD45RoundRect,0.243750X-0.243750X-0.456250X0.243750X-0.456250X0.243750X0.456250X-0.243750X0.456250X0*%
%ADD46RoundRect,0.243750X0.456250X-0.243750X0.456250X0.243750X-0.456250X0.243750X-0.456250X-0.243750X0*%
%ADD47C,1.700000*%
%ADD48R,0.900000X1.500000*%
%ADD49R,3.200000X1.500000*%
%ADD50R,1.350000X0.600000*%
%ADD51FreePoly0,0.000000*%
%ADD52FreePoly1,0.000000*%
%ADD53R,2.250000X2.050000*%
%ADD54R,2.000000X2.400000*%
G04 APERTURE END LIST*
%TO.C,JP1*%
G36*
X167450000Y-66925000D02*
G01*
X167750000Y-66925000D01*
X167750000Y-68425000D01*
X167450000Y-68425000D01*
X167450000Y-66925000D01*
G37*
%TD*%
D10*
%TO.C,TP27*%
X183350000Y-113300000D03*
%TD*%
%TO.C,TP26*%
X171825000Y-109275000D03*
%TD*%
%TO.C,TP25*%
X184125000Y-106200000D03*
%TD*%
D11*
%TO.C,R73*%
X91787500Y-88200000D03*
X93612500Y-88200000D03*
%TD*%
D12*
%TO.C,F2*%
X156300000Y-64000000D03*
X156300000Y-66800000D03*
%TD*%
D11*
%TO.C,R4*%
X159087500Y-91950000D03*
X160912500Y-91950000D03*
%TD*%
D13*
%TO.C,R13*%
X160937500Y-87725000D03*
X159112500Y-87725000D03*
%TD*%
D11*
%TO.C,R15*%
X145187500Y-43650000D03*
X147012500Y-43650000D03*
%TD*%
D14*
%TO.C,C18*%
X172082500Y-85820000D03*
X173982500Y-85820000D03*
%TD*%
D13*
%TO.C,R58*%
X93637500Y-84675000D03*
X91812500Y-84675000D03*
%TD*%
D15*
%TO.C,C36*%
X202475000Y-122975000D03*
X200575000Y-122975000D03*
%TD*%
D16*
%TO.C,Q2*%
X96800000Y-79400000D03*
X96800000Y-81300000D03*
X98675000Y-80350000D03*
%TD*%
D17*
%TO.C,H7*%
X114015000Y-57065000D03*
X115255000Y-60435000D03*
X115535000Y-53375000D03*
X119115000Y-62155000D03*
X119125000Y-51975000D03*
D18*
X119125000Y-57075000D03*
D17*
X122435000Y-53195000D03*
X122485000Y-60895000D03*
X124215000Y-57075000D03*
%TD*%
D15*
%TO.C,C35*%
X220200000Y-123225000D03*
X218300000Y-123225000D03*
%TD*%
D13*
%TO.C,R67*%
X59712500Y-84650000D03*
X57887500Y-84650000D03*
%TD*%
D11*
%TO.C,R42*%
X135212500Y-63575000D03*
X137037500Y-63575000D03*
%TD*%
%TO.C,R53*%
X166725000Y-71475000D03*
X168550000Y-71475000D03*
%TD*%
D19*
%TO.C,D5*%
X237475000Y-71700000D03*
X233375000Y-71700000D03*
%TD*%
D14*
%TO.C,C34*%
X99140000Y-115554000D03*
X101040000Y-115554000D03*
%TD*%
D15*
%TO.C,C41*%
X145575000Y-100850000D03*
X143675000Y-100850000D03*
%TD*%
%TO.C,C6*%
X202425000Y-107850000D03*
X200525000Y-107850000D03*
%TD*%
D13*
%TO.C,R11*%
X202400000Y-105450000D03*
X200575000Y-105450000D03*
%TD*%
%TO.C,R19*%
X152522500Y-43450000D03*
X150697500Y-43450000D03*
%TD*%
%TO.C,R38*%
X132425000Y-145350000D03*
X130600000Y-145350000D03*
%TD*%
D20*
%TO.C,C51*%
X143550000Y-83925000D03*
X135550000Y-83925000D03*
%TD*%
D21*
%TO.C,C65*%
X112265000Y-101200000D03*
X109185000Y-101200000D03*
%TD*%
D15*
%TO.C,C19*%
X236400000Y-95650000D03*
X234500000Y-95650000D03*
%TD*%
D13*
%TO.C,R52*%
X100896500Y-126476000D03*
X99071500Y-126476000D03*
%TD*%
D11*
%TO.C,R39*%
X90962500Y-145200000D03*
X92787500Y-145200000D03*
%TD*%
D13*
%TO.C,R27*%
X237587500Y-79740000D03*
X235762500Y-79740000D03*
%TD*%
D15*
%TO.C,C25*%
X81150000Y-151150000D03*
X79250000Y-151150000D03*
%TD*%
%TO.C,C8*%
X160975000Y-85600000D03*
X159075000Y-85600000D03*
%TD*%
D22*
%TO.C,C14*%
X150745000Y-49500000D03*
X153825000Y-49500000D03*
%TD*%
D23*
%TO.C,C16*%
X152700000Y-76350000D03*
X152700000Y-78250000D03*
%TD*%
D11*
%TO.C,R63*%
X160539500Y-121500000D03*
X162364500Y-121500000D03*
%TD*%
D13*
%TO.C,R30*%
X236150000Y-103150000D03*
X234325000Y-103150000D03*
%TD*%
D19*
%TO.C,D2*%
X202400000Y-100025000D03*
X198300000Y-100025000D03*
%TD*%
D13*
%TO.C,R29*%
X236375000Y-90925000D03*
X234550000Y-90925000D03*
%TD*%
%TO.C,R54*%
X202812500Y-90825000D03*
X200987500Y-90825000D03*
%TD*%
D24*
%TO.C,L2*%
X114850000Y-82900000D03*
X124750000Y-82900000D03*
%TD*%
D13*
%TO.C,R51*%
X100896500Y-123174000D03*
X99071500Y-123174000D03*
%TD*%
D10*
%TO.C,TP24*%
X57275000Y-67100000D03*
%TD*%
D25*
%TO.C,IC11*%
X63575000Y-91700000D03*
X63575000Y-92650000D03*
X63575000Y-93600000D03*
X66075000Y-93600000D03*
X66075000Y-91700000D03*
%TD*%
D19*
%TO.C,D3*%
X220025000Y-87700000D03*
X215925000Y-87700000D03*
%TD*%
D26*
%TO.C,CONN3*%
X238000000Y-151500000D03*
D27*
X238000000Y-154040000D03*
X235460000Y-151500000D03*
X235460000Y-154040000D03*
X232920000Y-151500000D03*
X232920000Y-154040000D03*
X230380000Y-151500000D03*
X230380000Y-154040000D03*
%TD*%
D14*
%TO.C,C21*%
X146532000Y-65770000D03*
X148432000Y-65770000D03*
%TD*%
D26*
%TO.C,CONN4*%
X65500000Y-45000000D03*
D27*
X65500000Y-47540000D03*
X62960000Y-45000000D03*
X62960000Y-47540000D03*
X60420000Y-45000000D03*
X60420000Y-47540000D03*
X57880000Y-45000000D03*
X57880000Y-47540000D03*
%TD*%
D11*
%TO.C,R50*%
X210825000Y-142100000D03*
X212650000Y-142100000D03*
%TD*%
D28*
%TO.C,CONN6*%
X159750000Y-55000000D03*
X159250000Y-58000000D03*
X158750000Y-55000000D03*
X158250000Y-58000000D03*
X157750000Y-55000000D03*
X157250000Y-58000000D03*
X156750000Y-55000000D03*
X156250000Y-58000000D03*
X155750000Y-55000000D03*
X155250000Y-58000000D03*
X154750000Y-55000000D03*
X154250000Y-58000000D03*
X153750000Y-55000000D03*
X153250000Y-58000000D03*
X152750000Y-55000000D03*
X152250000Y-58000000D03*
X151750000Y-55000000D03*
X151250000Y-58000000D03*
X150750000Y-55000000D03*
X150250000Y-58000000D03*
X149750000Y-55000000D03*
X149250000Y-58000000D03*
X148750000Y-55000000D03*
X148250000Y-58000000D03*
X147750000Y-55000000D03*
X147250000Y-58000000D03*
X146750000Y-55000000D03*
X146250000Y-58000000D03*
X145750000Y-55000000D03*
X145250000Y-58000000D03*
X144750000Y-55000000D03*
X144250000Y-58000000D03*
X143750000Y-55000000D03*
X143250000Y-58000000D03*
X142750000Y-55000000D03*
X142250000Y-58000000D03*
X141750000Y-55000000D03*
X141250000Y-58000000D03*
X140750000Y-55000000D03*
X140250000Y-58000000D03*
X139750000Y-55000000D03*
X139250000Y-58000000D03*
X138750000Y-55000000D03*
X138250000Y-58000000D03*
X137750000Y-55000000D03*
X137250000Y-58000000D03*
X136750000Y-55000000D03*
X136250000Y-58000000D03*
X135750000Y-55000000D03*
X135250000Y-58000000D03*
D29*
X160750000Y-55150000D03*
X160750000Y-57850000D03*
X134250000Y-55150000D03*
X134250000Y-57850000D03*
%TD*%
D15*
%TO.C,C43*%
X153350000Y-115350000D03*
X151450000Y-115350000D03*
%TD*%
D30*
%TO.C,IC8*%
X110612000Y-84855000D03*
X110612000Y-83585000D03*
X110612000Y-82315000D03*
X110612000Y-81045000D03*
X105188000Y-81045000D03*
X105188000Y-82315000D03*
X105188000Y-83585000D03*
X105188000Y-84855000D03*
%TD*%
D13*
%TO.C,R41*%
X152762500Y-73825000D03*
X150937500Y-73825000D03*
%TD*%
%TO.C,R6*%
X219962500Y-103325000D03*
X218137500Y-103325000D03*
%TD*%
D10*
%TO.C,TP13*%
X85700000Y-97075000D03*
%TD*%
D15*
%TO.C,C11*%
X64612000Y-117840000D03*
X62712000Y-117840000D03*
%TD*%
D14*
%TO.C,C9*%
X130210000Y-139903750D03*
X132110000Y-139903750D03*
%TD*%
D11*
%TO.C,R8*%
X130410000Y-132603750D03*
X132235000Y-132603750D03*
%TD*%
D14*
%TO.C,C32*%
X135625000Y-151775000D03*
X137525000Y-151775000D03*
%TD*%
D10*
%TO.C,TP15*%
X70675000Y-99900000D03*
%TD*%
D14*
%TO.C,C29*%
X150875000Y-69225000D03*
X152775000Y-69225000D03*
%TD*%
D10*
%TO.C,TP16*%
X68725000Y-79700000D03*
%TD*%
D15*
%TO.C,C46*%
X148325000Y-102975000D03*
X146425000Y-102975000D03*
%TD*%
D17*
%TO.C,H1*%
X55375000Y-137155000D03*
X57220227Y-132700227D03*
X57220227Y-141609773D03*
X61675000Y-130855000D03*
D31*
X61675000Y-137155000D03*
D17*
X61675000Y-143455000D03*
X66129773Y-132700227D03*
X66129773Y-141609773D03*
X67975000Y-137155000D03*
%TD*%
D32*
%TO.C,IC13*%
X78625000Y-91675000D03*
X78625000Y-92325000D03*
X78625000Y-92975000D03*
X80825000Y-92975000D03*
X80825000Y-91675000D03*
%TD*%
D14*
%TO.C,C37*%
X210762500Y-145750000D03*
X212662500Y-145750000D03*
%TD*%
%TO.C,C2*%
X57772000Y-108518000D03*
X59672000Y-108518000D03*
%TD*%
D15*
%TO.C,C52*%
X110800000Y-87150000D03*
X108900000Y-87150000D03*
%TD*%
%TO.C,C55*%
X161150000Y-133625000D03*
X159250000Y-133625000D03*
%TD*%
D33*
%TO.C,IC1*%
X67472000Y-115808000D03*
X67472000Y-117078000D03*
X67472000Y-118348000D03*
X67472000Y-119618000D03*
X67472000Y-120888000D03*
X67472000Y-122158000D03*
X67472000Y-123428000D03*
X72422000Y-123428000D03*
X72422000Y-122158000D03*
X72422000Y-120888000D03*
X72422000Y-119618000D03*
X72422000Y-118348000D03*
X72422000Y-117078000D03*
X72422000Y-115808000D03*
%TD*%
D34*
%TO.C,IC9*%
X158625000Y-137375000D03*
X158625000Y-137875000D03*
X158625000Y-138375000D03*
X158625000Y-138875000D03*
X161775000Y-138875000D03*
X161775000Y-138375000D03*
X161775000Y-137875000D03*
X161775000Y-137375000D03*
%TD*%
D23*
%TO.C,C26*%
X163992000Y-74726000D03*
X163992000Y-76626000D03*
%TD*%
D15*
%TO.C,C7*%
X236375000Y-122775000D03*
X234475000Y-122775000D03*
%TD*%
D35*
%TO.C,IC5*%
X177425000Y-72740000D03*
X177425000Y-71470000D03*
X177425000Y-70200000D03*
X177425000Y-68930000D03*
X172475000Y-68930000D03*
X172475000Y-70200000D03*
X172475000Y-71470000D03*
X172475000Y-72740000D03*
%TD*%
D26*
%TO.C,CONN1*%
X65500000Y-151500000D03*
D27*
X65500000Y-154040000D03*
X62960000Y-151500000D03*
X62960000Y-154040000D03*
X60420000Y-151500000D03*
X60420000Y-154040000D03*
X57880000Y-151500000D03*
X57880000Y-154040000D03*
%TD*%
D11*
%TO.C,R40*%
X135700000Y-144600000D03*
X137525000Y-144600000D03*
%TD*%
D15*
%TO.C,C5*%
X219975000Y-108075000D03*
X218075000Y-108075000D03*
%TD*%
D36*
%TO.C,F1*%
X143175000Y-71560000D03*
X143175000Y-76590000D03*
%TD*%
D14*
%TO.C,C63*%
X83100000Y-92025000D03*
X85000000Y-92025000D03*
%TD*%
D37*
%TO.C,IC12*%
X67462500Y-86425000D03*
X67462500Y-85775000D03*
X67462500Y-85125000D03*
X67462500Y-84475000D03*
X63237500Y-84475000D03*
X63237500Y-85125000D03*
X63237500Y-85775000D03*
X63237500Y-86425000D03*
%TD*%
D14*
%TO.C,C54*%
X146000000Y-115000000D03*
X147900000Y-115000000D03*
%TD*%
D16*
%TO.C,Q1*%
X96787500Y-84700000D03*
X96787500Y-86600000D03*
X98662500Y-85650000D03*
%TD*%
D10*
%TO.C,TP23*%
X200300000Y-142025000D03*
%TD*%
%TO.C,TP11*%
X171925000Y-149550000D03*
%TD*%
%TO.C,TP2*%
X81825000Y-128150000D03*
%TD*%
D11*
%TO.C,R24*%
X172120000Y-78470000D03*
X173945000Y-78470000D03*
%TD*%
D14*
%TO.C,C49*%
X146175000Y-108300000D03*
X148075000Y-108300000D03*
%TD*%
D10*
%TO.C,TP12*%
X177750000Y-149725000D03*
%TD*%
D13*
%TO.C,R46*%
X202462500Y-118100000D03*
X200637500Y-118100000D03*
%TD*%
D10*
%TO.C,TP8*%
X148950000Y-149500000D03*
%TD*%
D14*
%TO.C,C15*%
X75158000Y-115808000D03*
X77058000Y-115808000D03*
%TD*%
D11*
%TO.C,R66*%
X63712500Y-97100000D03*
X65537500Y-97100000D03*
%TD*%
%TO.C,R56*%
X153587500Y-91025000D03*
X155412500Y-91025000D03*
%TD*%
D13*
%TO.C,R12*%
X236387500Y-117850000D03*
X234562500Y-117850000D03*
%TD*%
%TO.C,R59*%
X93637500Y-79425000D03*
X91812500Y-79425000D03*
%TD*%
D10*
%TO.C,TP9*%
X148875000Y-144175000D03*
%TD*%
D13*
%TO.C,R60*%
X172387500Y-90525000D03*
X170562500Y-90525000D03*
%TD*%
D14*
%TO.C,C68*%
X57900000Y-96050000D03*
X59800000Y-96050000D03*
%TD*%
D13*
%TO.C,R7*%
X202412500Y-103150000D03*
X200587500Y-103150000D03*
%TD*%
D14*
%TO.C,C66*%
X64075000Y-82175000D03*
X65975000Y-82175000D03*
%TD*%
D11*
%TO.C,R17*%
X234562500Y-120325000D03*
X236387500Y-120325000D03*
%TD*%
D15*
%TO.C,C22*%
X81225000Y-143275000D03*
X79325000Y-143275000D03*
%TD*%
D14*
%TO.C,C31*%
X90900000Y-152500000D03*
X92800000Y-152500000D03*
%TD*%
D10*
%TO.C,TP4*%
X105050000Y-133375000D03*
%TD*%
D19*
%TO.C,D9*%
X220125000Y-114800000D03*
X216025000Y-114800000D03*
%TD*%
D14*
%TO.C,C64*%
X57875000Y-87050000D03*
X59775000Y-87050000D03*
%TD*%
D13*
%TO.C,R21*%
X160937500Y-81225000D03*
X159112500Y-81225000D03*
%TD*%
D15*
%TO.C,C4*%
X220000000Y-95600000D03*
X218100000Y-95600000D03*
%TD*%
D14*
%TO.C,C24*%
X217112500Y-142050000D03*
X219012500Y-142050000D03*
%TD*%
%TO.C,C23*%
X105700000Y-150450000D03*
X107600000Y-150450000D03*
%TD*%
D13*
%TO.C,R5*%
X219987500Y-90825000D03*
X218162500Y-90825000D03*
%TD*%
D22*
%TO.C,C57*%
X128160000Y-82800000D03*
X131240000Y-82800000D03*
%TD*%
D13*
%TO.C,R48*%
X202450000Y-120525000D03*
X200625000Y-120525000D03*
%TD*%
D14*
%TO.C,C69*%
X68375000Y-91750000D03*
X70275000Y-91750000D03*
%TD*%
D19*
%TO.C,D7*%
X236375000Y-100125000D03*
X232275000Y-100125000D03*
%TD*%
D14*
%TO.C,C44*%
X201000000Y-96150000D03*
X202900000Y-96150000D03*
%TD*%
D19*
%TO.C,D16*%
X112275000Y-106550000D03*
X108175000Y-106550000D03*
%TD*%
D13*
%TO.C,R69*%
X84447500Y-83271000D03*
X82622500Y-83271000D03*
%TD*%
%TO.C,R34*%
X81162500Y-139975000D03*
X79337500Y-139975000D03*
%TD*%
D38*
%TO.C,L1*%
X148112500Y-112800000D03*
X145987500Y-112800000D03*
%TD*%
D14*
%TO.C,C1*%
X82336000Y-108442000D03*
X84236000Y-108442000D03*
%TD*%
D39*
%TO.C,D11*%
X143250000Y-68500000D03*
X143250000Y-64200000D03*
%TD*%
D15*
%TO.C,C42*%
X164775000Y-116316000D03*
X162875000Y-116316000D03*
%TD*%
D40*
%TO.C,L3*%
X124050000Y-96300000D03*
X115750000Y-96300000D03*
%TD*%
D15*
%TO.C,C61*%
X112225000Y-92025000D03*
X110325000Y-92025000D03*
%TD*%
D26*
%TO.C,CONN2*%
X123000000Y-151500000D03*
D27*
X123000000Y-154040000D03*
X120460000Y-151500000D03*
X120460000Y-154040000D03*
X117920000Y-151500000D03*
X117920000Y-154040000D03*
X115380000Y-151500000D03*
X115380000Y-154040000D03*
%TD*%
D19*
%TO.C,D8*%
X202475000Y-114900000D03*
X198375000Y-114900000D03*
%TD*%
D13*
%TO.C,R47*%
X220137500Y-120450000D03*
X218312500Y-120450000D03*
%TD*%
D41*
%TO.C,IC10*%
X117912500Y-113700000D03*
X120212500Y-113700000D03*
D42*
X120212500Y-107400000D03*
D41*
X122512500Y-113700000D03*
%TD*%
D10*
%TO.C,TP20*%
X200425000Y-150225000D03*
%TD*%
D14*
%TO.C,C30*%
X135150000Y-67050000D03*
X137050000Y-67050000D03*
%TD*%
D43*
%TO.C,IC7*%
X150675000Y-98600000D03*
X150675000Y-99100000D03*
X150675000Y-99600000D03*
X150675000Y-100100000D03*
X150675000Y-100600000D03*
X150675000Y-101100000D03*
X150675000Y-101600000D03*
X150675000Y-102100000D03*
X150675000Y-102600000D03*
X150675000Y-103100000D03*
X150675000Y-103600000D03*
X150675000Y-104100000D03*
X150675000Y-104600000D03*
X150675000Y-105100000D03*
X150675000Y-105600000D03*
X150675000Y-106100000D03*
X150675000Y-106600000D03*
X150675000Y-107100000D03*
X150675000Y-107600000D03*
X150675000Y-108100000D03*
X150675000Y-108600000D03*
X150675000Y-109100000D03*
X150675000Y-109600000D03*
X150675000Y-110100000D03*
X150675000Y-110600000D03*
D44*
X152350000Y-112275000D03*
X152850000Y-112275000D03*
X153350000Y-112275000D03*
X153850000Y-112275000D03*
X154350000Y-112275000D03*
X154850000Y-112275000D03*
X155350000Y-112275000D03*
X155850000Y-112275000D03*
X156350000Y-112275000D03*
X156850000Y-112275000D03*
X157350000Y-112275000D03*
X157850000Y-112275000D03*
X158350000Y-112275000D03*
X158850000Y-112275000D03*
X159350000Y-112275000D03*
X159850000Y-112275000D03*
X160350000Y-112275000D03*
X160850000Y-112275000D03*
X161350000Y-112275000D03*
X161850000Y-112275000D03*
X162350000Y-112275000D03*
X162850000Y-112275000D03*
X163350000Y-112275000D03*
X163850000Y-112275000D03*
X164350000Y-112275000D03*
D43*
X166025000Y-110600000D03*
X166025000Y-110100000D03*
X166025000Y-109600000D03*
X166025000Y-109100000D03*
X166025000Y-108600000D03*
X166025000Y-108100000D03*
X166025000Y-107600000D03*
X166025000Y-107100000D03*
X166025000Y-106600000D03*
X166025000Y-106100000D03*
X166025000Y-105600000D03*
X166025000Y-105100000D03*
X166025000Y-104600000D03*
X166025000Y-104100000D03*
X166025000Y-103600000D03*
X166025000Y-103100000D03*
X166025000Y-102600000D03*
X166025000Y-102100000D03*
X166025000Y-101600000D03*
X166025000Y-101100000D03*
X166025000Y-100600000D03*
X166025000Y-100100000D03*
X166025000Y-99600000D03*
X166025000Y-99100000D03*
X166025000Y-98600000D03*
D44*
X164350000Y-96925000D03*
X163850000Y-96925000D03*
X163350000Y-96925000D03*
X162850000Y-96925000D03*
X162350000Y-96925000D03*
X161850000Y-96925000D03*
X161350000Y-96925000D03*
X160850000Y-96925000D03*
X160350000Y-96925000D03*
X159850000Y-96925000D03*
X159350000Y-96925000D03*
X158850000Y-96925000D03*
X158350000Y-96925000D03*
X157850000Y-96925000D03*
X157350000Y-96925000D03*
X156850000Y-96925000D03*
X156350000Y-96925000D03*
X155850000Y-96925000D03*
X155350000Y-96925000D03*
X154850000Y-96925000D03*
X154350000Y-96925000D03*
X153850000Y-96925000D03*
X153350000Y-96925000D03*
X152850000Y-96925000D03*
X152350000Y-96925000D03*
%TD*%
D10*
%TO.C,TP6*%
X104400000Y-120125000D03*
%TD*%
%TO.C,TP1*%
X167925000Y-82225000D03*
%TD*%
D17*
%TO.C,H4*%
X171445000Y-57065000D03*
X172685000Y-60435000D03*
X172965000Y-53375000D03*
X176545000Y-62155000D03*
X176555000Y-51975000D03*
D18*
X176555000Y-57075000D03*
D17*
X179865000Y-53195000D03*
X179915000Y-60895000D03*
X181645000Y-57075000D03*
%TD*%
D22*
%TO.C,C60*%
X125098000Y-107426000D03*
X128178000Y-107426000D03*
%TD*%
D19*
%TO.C,D1*%
X220050000Y-100100000D03*
X215950000Y-100100000D03*
%TD*%
D17*
%TO.C,H5*%
X56565000Y-57065000D03*
X57805000Y-60435000D03*
X58085000Y-53375000D03*
X61665000Y-62155000D03*
X61675000Y-51975000D03*
D18*
X61675000Y-57075000D03*
D17*
X64985000Y-53195000D03*
X65035000Y-60895000D03*
X66765000Y-57075000D03*
%TD*%
D10*
%TO.C,TP7*%
X142375000Y-144300000D03*
%TD*%
D11*
%TO.C,R35*%
X105775000Y-154175000D03*
X107600000Y-154175000D03*
%TD*%
D15*
%TO.C,C50*%
X145575000Y-97375000D03*
X143675000Y-97375000D03*
%TD*%
D14*
%TO.C,C67*%
X57850000Y-91400000D03*
X59750000Y-91400000D03*
%TD*%
D11*
%TO.C,R18*%
X159112500Y-83325000D03*
X160937500Y-83325000D03*
%TD*%
%TO.C,R2*%
X57809500Y-104893000D03*
X59634500Y-104893000D03*
%TD*%
D10*
%TO.C,TP5*%
X133875000Y-44625000D03*
%TD*%
%TO.C,TP22*%
X128825000Y-48025000D03*
%TD*%
D13*
%TO.C,R61*%
X178862500Y-105600000D03*
X177037500Y-105600000D03*
%TD*%
%TO.C,R22*%
X70924500Y-112506000D03*
X69099500Y-112506000D03*
%TD*%
D15*
%TO.C,C27*%
X132450000Y-148750000D03*
X130550000Y-148750000D03*
%TD*%
D45*
%TO.C,LED1*%
X78472500Y-83296000D03*
X80347500Y-83296000D03*
%TD*%
D14*
%TO.C,C48*%
X137700000Y-108325000D03*
X139600000Y-108325000D03*
%TD*%
D10*
%TO.C,TP18*%
X69300000Y-42125000D03*
%TD*%
D13*
%TO.C,R10*%
X219962500Y-105675000D03*
X218137500Y-105675000D03*
%TD*%
%TO.C,R9*%
X219987500Y-93200000D03*
X218162500Y-93200000D03*
%TD*%
D11*
%TO.C,R43*%
X90962500Y-148650000D03*
X92787500Y-148650000D03*
%TD*%
D19*
%TO.C,D10*%
X202275000Y-87750000D03*
X198175000Y-87750000D03*
%TD*%
D11*
%TO.C,R64*%
X156465000Y-124985000D03*
X158290000Y-124985000D03*
%TD*%
%TO.C,R36*%
X217150000Y-145750000D03*
X218975000Y-145750000D03*
%TD*%
D13*
%TO.C,R70*%
X59737500Y-93550000D03*
X57912500Y-93550000D03*
%TD*%
D46*
%TO.C,LED2*%
X168050000Y-92225000D03*
X168050000Y-90350000D03*
%TD*%
D13*
%TO.C,R28*%
X145475000Y-94100000D03*
X143650000Y-94100000D03*
%TD*%
D22*
%TO.C,C10*%
X143760000Y-49600000D03*
X146840000Y-49600000D03*
%TD*%
D14*
%TO.C,C45*%
X138350000Y-100850000D03*
X140250000Y-100850000D03*
%TD*%
D11*
%TO.C,R1*%
X82373500Y-105117000D03*
X84198500Y-105117000D03*
%TD*%
D14*
%TO.C,C56*%
X128150000Y-78050000D03*
X130050000Y-78050000D03*
%TD*%
D30*
%TO.C,IC4*%
X90840000Y-115554000D03*
X90840000Y-116824000D03*
X90840000Y-118094000D03*
X90840000Y-119364000D03*
X90840000Y-120634000D03*
X90840000Y-121904000D03*
X90840000Y-123174000D03*
X96264000Y-123174000D03*
X96264000Y-121904000D03*
X96264000Y-120634000D03*
X96264000Y-119364000D03*
X96264000Y-118094000D03*
X96264000Y-116824000D03*
X96264000Y-115554000D03*
%TD*%
D26*
%TO.C,J4*%
X178500000Y-79200000D03*
D47*
X178500000Y-81740000D03*
X178500000Y-84280000D03*
%TD*%
D10*
%TO.C,TP10*%
X182875000Y-149800000D03*
%TD*%
D34*
%TO.C,IC6*%
X147925000Y-137350000D03*
X147925000Y-137850000D03*
X147925000Y-138350000D03*
X147925000Y-138850000D03*
X151075000Y-138850000D03*
X151075000Y-138350000D03*
X151075000Y-137850000D03*
X151075000Y-137350000D03*
%TD*%
D17*
%TO.C,H6*%
X171445000Y-137145000D03*
X172685000Y-140515000D03*
X172965000Y-133455000D03*
X176545000Y-142235000D03*
X176555000Y-132055000D03*
D18*
X176555000Y-137155000D03*
D17*
X179865000Y-133275000D03*
X179915000Y-140975000D03*
X181645000Y-137155000D03*
%TD*%
D11*
%TO.C,R72*%
X69025000Y-153050000D03*
X70850000Y-153050000D03*
%TD*%
D26*
%TO.C,J3*%
X176645000Y-94250000D03*
D47*
X179185000Y-94250000D03*
X181725000Y-94250000D03*
%TD*%
D14*
%TO.C,C28*%
X150875000Y-71500000D03*
X152775000Y-71500000D03*
%TD*%
%TO.C,C3*%
X159075000Y-89800000D03*
X160975000Y-89800000D03*
%TD*%
D21*
%TO.C,C62*%
X112290000Y-96300000D03*
X109210000Y-96300000D03*
%TD*%
D15*
%TO.C,C13*%
X157100000Y-81150000D03*
X155200000Y-81150000D03*
%TD*%
%TO.C,C20*%
X236150000Y-108000000D03*
X234250000Y-108000000D03*
%TD*%
D11*
%TO.C,R71*%
X60625000Y-72500000D03*
X62450000Y-72500000D03*
%TD*%
%TO.C,R49*%
X151187500Y-64500000D03*
X153012500Y-64500000D03*
%TD*%
D13*
%TO.C,R32*%
X236150000Y-105450000D03*
X234325000Y-105450000D03*
%TD*%
D14*
%TO.C,C33*%
X156750000Y-70075000D03*
X158650000Y-70075000D03*
%TD*%
D15*
%TO.C,C53*%
X148050000Y-110500000D03*
X146150000Y-110500000D03*
%TD*%
%TO.C,C12*%
X157075000Y-83325000D03*
X155175000Y-83325000D03*
%TD*%
D19*
%TO.C,D12*%
X138350000Y-76625000D03*
X134250000Y-76625000D03*
%TD*%
D11*
%TO.C,R20*%
X150672500Y-46150000D03*
X152497500Y-46150000D03*
%TD*%
D26*
%TO.C,J1*%
X129050000Y-69550000D03*
D47*
X129050000Y-67010000D03*
%TD*%
D13*
%TO.C,R57*%
X110812500Y-76850000D03*
X108987500Y-76850000D03*
%TD*%
D30*
%TO.C,IC3*%
X155213000Y-74620000D03*
X155213000Y-75890000D03*
X155213000Y-77160000D03*
X155213000Y-78430000D03*
X160637000Y-78430000D03*
X160637000Y-77160000D03*
X160637000Y-75890000D03*
X160637000Y-74620000D03*
%TD*%
D48*
%TO.C,IC2*%
X151900000Y-80400000D03*
X149600000Y-80400000D03*
X147300000Y-80400000D03*
D49*
X149600000Y-86900000D03*
%TD*%
D26*
%TO.C,J2*%
X172195000Y-119600000D03*
D47*
X174735000Y-119600000D03*
X177275000Y-119600000D03*
X179815000Y-119600000D03*
X182355000Y-119600000D03*
%TD*%
D15*
%TO.C,C47*%
X150600000Y-133600000D03*
X148700000Y-133600000D03*
%TD*%
D11*
%TO.C,R16*%
X145187500Y-45950000D03*
X147012500Y-45950000D03*
%TD*%
D17*
%TO.C,H3*%
X229115000Y-137145000D03*
X230355000Y-140515000D03*
X230635000Y-133455000D03*
X234215000Y-142235000D03*
X234225000Y-132055000D03*
D18*
X234225000Y-137155000D03*
D17*
X237535000Y-133275000D03*
X237585000Y-140975000D03*
X239315000Y-137155000D03*
%TD*%
D10*
%TO.C,TP19*%
X129375000Y-153475000D03*
%TD*%
D13*
%TO.C,R45*%
X220112500Y-117975000D03*
X218287500Y-117975000D03*
%TD*%
D11*
%TO.C,R25*%
X235775000Y-76425000D03*
X237600000Y-76425000D03*
%TD*%
D14*
%TO.C,C38*%
X180425000Y-70200000D03*
X182325000Y-70200000D03*
%TD*%
%TO.C,C58*%
X125525000Y-113650000D03*
X127425000Y-113650000D03*
%TD*%
D50*
%TO.C,D17*%
X164600000Y-61475000D03*
X164600000Y-63375000D03*
X167000000Y-62425000D03*
%TD*%
D13*
%TO.C,R55*%
X202812500Y-93475000D03*
X200987500Y-93475000D03*
%TD*%
D10*
%TO.C,TP3*%
X142400000Y-151250000D03*
%TD*%
D13*
%TO.C,R23*%
X159712500Y-43500000D03*
X157887500Y-43500000D03*
%TD*%
D26*
%TO.C,CONN5*%
X123000000Y-45000000D03*
D27*
X123000000Y-47540000D03*
X120460000Y-45000000D03*
X120460000Y-47540000D03*
X117920000Y-45000000D03*
X117920000Y-47540000D03*
X115380000Y-45000000D03*
X115380000Y-47540000D03*
%TD*%
D14*
%TO.C,C40*%
X168100000Y-98475000D03*
X170000000Y-98475000D03*
%TD*%
D13*
%TO.C,R31*%
X236375000Y-93325000D03*
X234550000Y-93325000D03*
%TD*%
D14*
%TO.C,C17*%
X235686000Y-83296000D03*
X237586000Y-83296000D03*
%TD*%
D11*
%TO.C,R33*%
X146569500Y-62214000D03*
X148394500Y-62214000D03*
%TD*%
%TO.C,R14*%
X130372500Y-136253750D03*
X132197500Y-136253750D03*
%TD*%
D22*
%TO.C,C59*%
X128135000Y-87650000D03*
X131215000Y-87650000D03*
%TD*%
D10*
%TO.C,TP21*%
X128825000Y-42625000D03*
%TD*%
D51*
%TO.C,JP1*%
X166950000Y-67675000D03*
D52*
X168250000Y-67675000D03*
%TD*%
D53*
%TO.C,D14*%
X114325000Y-73525000D03*
X118625000Y-73525000D03*
%TD*%
D19*
%TO.C,D15*%
X119560000Y-117078000D03*
X115460000Y-117078000D03*
%TD*%
D13*
%TO.C,R37*%
X81162500Y-147625000D03*
X79337500Y-147625000D03*
%TD*%
D17*
%TO.C,H8*%
X229115000Y-57065000D03*
X230355000Y-60435000D03*
X230635000Y-53375000D03*
X234215000Y-62155000D03*
X234225000Y-51975000D03*
D18*
X234225000Y-57075000D03*
D17*
X237535000Y-53195000D03*
X237585000Y-60895000D03*
X239315000Y-57075000D03*
%TD*%
D14*
%TO.C,C39*%
X151650000Y-94075000D03*
X153550000Y-94075000D03*
%TD*%
D19*
%TO.C,D4*%
X236400000Y-114800000D03*
X232300000Y-114800000D03*
%TD*%
D11*
%TO.C,R68*%
X57862500Y-89225000D03*
X59687500Y-89225000D03*
%TD*%
D19*
%TO.C,D6*%
X236375000Y-87675000D03*
X232275000Y-87675000D03*
%TD*%
D54*
%TO.C,Y1*%
X143950000Y-104125000D03*
X140250000Y-104125000D03*
%TD*%
D11*
%TO.C,R3*%
X159087500Y-94200000D03*
X160912500Y-94200000D03*
%TD*%
%TO.C,R65*%
X156425000Y-121475000D03*
X158250000Y-121475000D03*
%TD*%
%TO.C,R26*%
X172132500Y-82120000D03*
X173957500Y-82120000D03*
%TD*%
D10*
%TO.C,TP14*%
X53900000Y-100125000D03*
%TD*%
D11*
%TO.C,R44*%
X135687500Y-148125000D03*
X137512500Y-148125000D03*
%TD*%
D17*
%TO.C,H2*%
X114015000Y-137145000D03*
X115255000Y-140515000D03*
X115535000Y-133455000D03*
X119115000Y-142235000D03*
X119125000Y-132055000D03*
D18*
X119125000Y-137155000D03*
D17*
X122435000Y-133275000D03*
X122485000Y-140975000D03*
X124215000Y-137155000D03*
%TD*%
D10*
%TO.C,TP17*%
X55950000Y-79975000D03*
%TD*%
D11*
%TO.C,R62*%
X176987500Y-103275000D03*
X178812500Y-103275000D03*
%TD*%
M02*
