%TF.GenerationSoftware,KiCad,Pcbnew,9.0.8-9.0.8~ubuntu22.04.1*%
%TF.CreationDate,2026-03-28T09:58:10+00:00*%
%TF.ProjectId,FDU_V1,4644555f-5631-42e6-9b69-6361645f7063,rev?*%
%TF.SameCoordinates,Original*%
%TF.FileFunction,Copper,L6,Bot*%
%TF.FilePolarity,Positive*%
%FSLAX46Y46*%
G04 Gerber Fmt 4.6, Leading zero omitted, Abs format (unit mm)*
G04 Created by KiCad (PCBNEW 9.0.8-9.0.8~ubuntu22.04.1) date 2026-03-28 09:58:10*
%MOMM*%
%LPD*%
G01*
G04 APERTURE LIST*
%TA.AperFunction,ComponentPad*%
%ADD10C,2.000000*%
%TD*%
%TA.AperFunction,ComponentPad*%
%ADD11C,1.100000*%
%TD*%
%TA.AperFunction,ComponentPad*%
%ADD12C,12.000000*%
%TD*%
%TA.AperFunction,ComponentPad*%
%ADD13R,1.700000X1.700000*%
%TD*%
%TA.AperFunction,ComponentPad*%
%ADD14O,1.700000X1.700000*%
%TD*%
%TA.AperFunction,ComponentPad*%
%ADD15C,16.800000*%
%TD*%
%TA.AperFunction,ComponentPad*%
%ADD16C,1.700000*%
%TD*%
%TA.AperFunction,ViaPad*%
%ADD17C,0.600000*%
%TD*%
%TA.AperFunction,ViaPad*%
%ADD18C,1.000000*%
%TD*%
%TA.AperFunction,ViaPad*%
%ADD19C,0.800000*%
%TD*%
%TA.AperFunction,Conductor*%
%ADD20C,0.300000*%
%TD*%
%TA.AperFunction,Conductor*%
%ADD21C,0.500000*%
%TD*%
%TA.AperFunction,Conductor*%
%ADD22C,1.500000*%
%TD*%
%TA.AperFunction,Conductor*%
%ADD23C,0.254000*%
%TD*%
G04 APERTURE END LIST*
D10*
%TO.P,TP27,1,1*%
%TO.N,Net-(IC7-PD15)*%
X183350000Y-113300000D03*
%TD*%
%TO.P,TP26,1,1*%
%TO.N,Net-(IC7-PD14)*%
X171825000Y-109275000D03*
%TD*%
%TO.P,TP25,1,1*%
%TO.N,Net-(IC7-PD13)*%
X184125000Y-106200000D03*
%TD*%
D11*
%TO.P,H7,1,1*%
%TO.N,GND*%
X114015000Y-57065000D03*
X115255000Y-60435000D03*
X115535000Y-53375000D03*
X119115000Y-62155000D03*
X119125000Y-51975000D03*
D12*
X119125000Y-57075000D03*
D11*
X122435000Y-53195000D03*
X122485000Y-60895000D03*
X124215000Y-57075000D03*
%TD*%
D10*
%TO.P,TP24,1,1*%
%TO.N,Net-(CONN4-Pin_8)*%
X57275000Y-67100000D03*
%TD*%
D13*
%TO.P,CONN3,1,Pin_1*%
%TO.N,GND*%
X238000000Y-151500000D03*
D14*
%TO.P,CONN3,2,Pin_2*%
%TO.N,Net-(CONN3-Pin_2)*%
X238000000Y-154040000D03*
%TO.P,CONN3,3,Pin_3*%
%TO.N,/FAULT C HI*%
X235460000Y-151500000D03*
%TO.P,CONN3,4,Pin_4*%
%TO.N,/PWM C HI*%
X235460000Y-154040000D03*
%TO.P,CONN3,5,Pin_5*%
%TO.N,/I_C*%
X232920000Y-151500000D03*
%TO.P,CONN3,6,Pin_6*%
%TO.N,Net-(CONN3-Pin_6)*%
X232920000Y-154040000D03*
%TO.P,CONN3,7,Pin_7*%
%TO.N,/PWM C LO*%
X230380000Y-151500000D03*
%TO.P,CONN3,8,Pin_8*%
%TO.N,/FAULT C LO*%
X230380000Y-154040000D03*
%TD*%
D13*
%TO.P,CONN4,1,Pin_1*%
%TO.N,GND*%
X65500000Y-45000000D03*
D14*
%TO.P,CONN4,2,Pin_2*%
%TO.N,Net-(CONN4-Pin_2)*%
X65500000Y-47540000D03*
%TO.P,CONN4,3,Pin_3*%
%TO.N,GND*%
X62960000Y-45000000D03*
%TO.P,CONN4,4,Pin_4*%
%TO.N,/GATE PSU EN*%
X62960000Y-47540000D03*
%TO.P,CONN4,5,Pin_5*%
%TO.N,unconnected-(CONN4-Pin_5-Pad5)*%
X60420000Y-45000000D03*
%TO.P,CONN4,6,Pin_6*%
%TO.N,/GATE PSU STAT*%
X60420000Y-47540000D03*
%TO.P,CONN4,7,Pin_7*%
%TO.N,+12V*%
X57880000Y-45000000D03*
%TO.P,CONN4,8,Pin_8*%
%TO.N,Net-(CONN4-Pin_8)*%
X57880000Y-47540000D03*
%TD*%
D10*
%TO.P,TP13,1,1*%
%TO.N,/UDC_IN*%
X85700000Y-97075000D03*
%TD*%
%TO.P,TP15,1,1*%
%TO.N,/8Mhz Clock*%
X70675000Y-99900000D03*
%TD*%
%TO.P,TP16,1,1*%
%TO.N,/S{slash}D HV DATA*%
X68725000Y-79700000D03*
%TD*%
D11*
%TO.P,H1,1,1*%
%TO.N,GND*%
X55375000Y-137155000D03*
X57220227Y-132700227D03*
X57220227Y-141609773D03*
X61675000Y-130855000D03*
D15*
X61675000Y-137155000D03*
D11*
X61675000Y-143455000D03*
X66129773Y-132700227D03*
X66129773Y-141609773D03*
X67975000Y-137155000D03*
%TD*%
D13*
%TO.P,CONN1,1,Pin_1*%
%TO.N,GND*%
X65500000Y-151500000D03*
D14*
%TO.P,CONN1,2,Pin_2*%
%TO.N,/HS_TEMP*%
X65500000Y-154040000D03*
%TO.P,CONN1,3,Pin_3*%
%TO.N,/FAULT A HI*%
X62960000Y-151500000D03*
%TO.P,CONN1,4,Pin_4*%
%TO.N,/PWM A HI*%
X62960000Y-154040000D03*
%TO.P,CONN1,5,Pin_5*%
%TO.N,/I_A*%
X60420000Y-151500000D03*
%TO.P,CONN1,6,Pin_6*%
%TO.N,Net-(CONN1-Pin_6)*%
X60420000Y-154040000D03*
%TO.P,CONN1,7,Pin_7*%
%TO.N,/PWM A LO*%
X57880000Y-151500000D03*
%TO.P,CONN1,8,Pin_8*%
%TO.N,/FAULT A LO*%
X57880000Y-154040000D03*
%TD*%
D10*
%TO.P,TP23,1,1*%
%TO.N,Net-(CONN3-Pin_6)*%
X200300000Y-142025000D03*
%TD*%
%TO.P,TP11,1,1*%
%TO.N,/PWM A HI*%
X171925000Y-149550000D03*
%TD*%
%TO.P,TP2,1,1*%
%TO.N,Net-(IC4-F)*%
X81825000Y-128150000D03*
%TD*%
%TO.P,TP12,1,1*%
%TO.N,/PWM B HI*%
X177750000Y-149725000D03*
%TD*%
%TO.P,TP8,1,1*%
%TO.N,/PWM B LO*%
X148950000Y-149500000D03*
%TD*%
%TO.P,TP9,1,1*%
%TO.N,/PWM A LO*%
X148875000Y-144175000D03*
%TD*%
%TO.P,TP4,1,1*%
%TO.N,/IL1_IN*%
X105050000Y-133375000D03*
%TD*%
D13*
%TO.P,CONN2,1,Pin_1*%
%TO.N,GND*%
X123000000Y-151500000D03*
D14*
%TO.P,CONN2,2,Pin_2*%
%TO.N,Net-(CONN2-Pin_2)*%
X123000000Y-154040000D03*
%TO.P,CONN2,3,Pin_3*%
%TO.N,/FAULT B HI*%
X120460000Y-151500000D03*
%TO.P,CONN2,4,Pin_4*%
%TO.N,/PWM B HI*%
X120460000Y-154040000D03*
%TO.P,CONN2,5,Pin_5*%
%TO.N,/I_B*%
X117920000Y-151500000D03*
%TO.P,CONN2,6,Pin_6*%
%TO.N,+5V*%
X117920000Y-154040000D03*
%TO.P,CONN2,7,Pin_7*%
%TO.N,/PWM B LO*%
X115380000Y-151500000D03*
%TO.P,CONN2,8,Pin_8*%
%TO.N,/FAULT B LO*%
X115380000Y-154040000D03*
%TD*%
D10*
%TO.P,TP20,1,1*%
%TO.N,Net-(CONN3-Pin_2)*%
X200425000Y-150225000D03*
%TD*%
%TO.P,TP6,1,1*%
%TO.N,/BKIN*%
X104400000Y-120125000D03*
%TD*%
%TO.P,TP1,1,1*%
%TO.N,Net-(C3-Pad1)*%
X167925000Y-82225000D03*
%TD*%
D11*
%TO.P,H4,1,1*%
%TO.N,GND*%
X171445000Y-57065000D03*
X172685000Y-60435000D03*
X172965000Y-53375000D03*
X176545000Y-62155000D03*
X176555000Y-51975000D03*
D12*
X176555000Y-57075000D03*
D11*
X179865000Y-53195000D03*
X179915000Y-60895000D03*
X181645000Y-57075000D03*
%TD*%
%TO.P,H5,1,1*%
%TO.N,GND*%
X56565000Y-57065000D03*
X57805000Y-60435000D03*
X58085000Y-53375000D03*
X61665000Y-62155000D03*
X61675000Y-51975000D03*
D12*
X61675000Y-57075000D03*
D11*
X64985000Y-53195000D03*
X65035000Y-60895000D03*
X66765000Y-57075000D03*
%TD*%
D10*
%TO.P,TP7,1,1*%
%TO.N,/PWM C LO*%
X142375000Y-144300000D03*
%TD*%
%TO.P,TP5,1,1*%
%TO.N,/EXCA*%
X133875000Y-44625000D03*
%TD*%
%TO.P,TP22,1,1*%
%TO.N,/VOUTN*%
X128825000Y-48025000D03*
%TD*%
%TO.P,TP18,1,1*%
%TO.N,Net-(CONN4-Pin_2)*%
X69300000Y-42125000D03*
%TD*%
D13*
%TO.P,J4,1,Pin_1*%
%TO.N,/CANL*%
X178500000Y-79200000D03*
D16*
%TO.P,J4,2,Pin_2*%
%TO.N,/CANH*%
X178500000Y-81740000D03*
%TO.P,J4,3,Pin_3*%
%TO.N,GND*%
X178500000Y-84280000D03*
%TD*%
D10*
%TO.P,TP10,1,1*%
%TO.N,/PWM C HI*%
X182875000Y-149800000D03*
%TD*%
D11*
%TO.P,H6,1,1*%
%TO.N,GND*%
X171445000Y-137145000D03*
X172685000Y-140515000D03*
X172965000Y-133455000D03*
X176545000Y-142235000D03*
X176555000Y-132055000D03*
D12*
X176555000Y-137155000D03*
D11*
X179865000Y-133275000D03*
X179915000Y-140975000D03*
X181645000Y-137155000D03*
%TD*%
D13*
%TO.P,J3,1,Pin_1*%
%TO.N,/SWDAT*%
X176645000Y-94250000D03*
D16*
%TO.P,J3,2,Pin_2*%
%TO.N,GND*%
X179185000Y-94250000D03*
%TO.P,J3,3,Pin_3*%
%TO.N,/SWCLK*%
X181725000Y-94250000D03*
%TD*%
D13*
%TO.P,J1,1,Pin_1*%
%TO.N,GND*%
X129050000Y-69550000D03*
D16*
%TO.P,J1,2,Pin_2*%
%TO.N,+12P*%
X129050000Y-67010000D03*
%TD*%
D13*
%TO.P,J2,1,Pin_1*%
%TO.N,+5V*%
X172195000Y-119600000D03*
D16*
%TO.P,J2,2,Pin_2*%
%TO.N,unconnected-(J2-Pin_2-Pad2)*%
X174735000Y-119600000D03*
%TO.P,J2,3,Pin_3*%
%TO.N,/USART_RX*%
X177275000Y-119600000D03*
%TO.P,J2,4,Pin_4*%
%TO.N,/USART_TX*%
X179815000Y-119600000D03*
%TO.P,J2,5,Pin_5*%
%TO.N,GND*%
X182355000Y-119600000D03*
%TD*%
D11*
%TO.P,H3,1,1*%
%TO.N,GND*%
X229115000Y-137145000D03*
X230355000Y-140515000D03*
X230635000Y-133455000D03*
X234215000Y-142235000D03*
X234225000Y-132055000D03*
D12*
X234225000Y-137155000D03*
D11*
X237535000Y-133275000D03*
X237585000Y-140975000D03*
X239315000Y-137155000D03*
%TD*%
D10*
%TO.P,TP19,1,1*%
%TO.N,Net-(CONN2-Pin_2)*%
X129375000Y-153475000D03*
%TD*%
%TO.P,TP3,1,1*%
%TO.N,/IL2_IN*%
X142400000Y-151250000D03*
%TD*%
D13*
%TO.P,CONN5,1,Pin_1*%
%TO.N,GND*%
X123000000Y-45000000D03*
D14*
%TO.P,CONN5,2,Pin_2*%
%TO.N,+3V3*%
X123000000Y-47540000D03*
%TO.P,CONN5,3,Pin_3*%
%TO.N,/LINK DISCH_OUT*%
X120460000Y-45000000D03*
%TO.P,CONN5,4,Pin_4*%
%TO.N,+3V3*%
X120460000Y-47540000D03*
%TO.P,CONN5,5,Pin_5*%
%TO.N,/VOUTP*%
X117920000Y-45000000D03*
%TO.P,CONN5,6,Pin_6*%
%TO.N,/VOUTN*%
X117920000Y-47540000D03*
%TO.P,CONN5,7,Pin_7*%
%TO.N,/S{slash}D HV CLK*%
X115380000Y-45000000D03*
%TO.P,CONN5,8,Pin_8*%
%TO.N,/S{slash}D HV DATA*%
X115380000Y-47540000D03*
%TD*%
D10*
%TO.P,TP21,1,1*%
%TO.N,/VOUTP*%
X128825000Y-42625000D03*
%TD*%
D11*
%TO.P,H8,1,1*%
%TO.N,GND*%
X229115000Y-57065000D03*
X230355000Y-60435000D03*
X230635000Y-53375000D03*
X234215000Y-62155000D03*
X234225000Y-51975000D03*
D12*
X234225000Y-57075000D03*
D11*
X237535000Y-53195000D03*
X237585000Y-60895000D03*
X239315000Y-57075000D03*
%TD*%
D10*
%TO.P,TP14,1,1*%
%TO.N,Net-(IC11-VIN+)*%
X53900000Y-100125000D03*
%TD*%
D11*
%TO.P,H2,1,1*%
%TO.N,GND*%
X114015000Y-137145000D03*
X115255000Y-140515000D03*
X115535000Y-133455000D03*
X119115000Y-142235000D03*
X119125000Y-132055000D03*
D12*
X119125000Y-137155000D03*
D11*
X122435000Y-133275000D03*
X122485000Y-140975000D03*
X124215000Y-137155000D03*
%TD*%
D10*
%TO.P,TP17,1,1*%
%TO.N,/S{slash}D HV CLK*%
X55950000Y-79975000D03*
%TD*%
D17*
%TO.N,Net-(IC7-PD14)*%
X163675000Y-107575000D03*
%TO.N,Net-(IC7-PD15)*%
X171625000Y-105100000D03*
D18*
%TO.N,+5V*%
X152375000Y-66775000D03*
D17*
%TO.N,GND*%
X90500000Y-87775000D03*
%TO.N,+12V*%
X111300000Y-78925000D03*
D19*
X143650000Y-81550000D03*
X143650000Y-80000000D03*
X112462500Y-87412500D03*
D18*
X153975000Y-86900000D03*
D19*
X143475000Y-78725000D03*
D17*
%TO.N,GND*%
X153850000Y-79400000D03*
D18*
X129025000Y-148800000D03*
X195800000Y-100200000D03*
X229325000Y-87950000D03*
X213275000Y-87900000D03*
X134250000Y-151850000D03*
X115460000Y-119364000D03*
D19*
X104900000Y-104575000D03*
D18*
X77250000Y-151275000D03*
D17*
X63916000Y-98536000D03*
D18*
X134558000Y-136327750D03*
X165516000Y-77200000D03*
X115478000Y-122920000D03*
D19*
X104925000Y-95325000D03*
D17*
X148498000Y-67294000D03*
X144100000Y-109100000D03*
D18*
X131400000Y-90850000D03*
X155875000Y-48275000D03*
D17*
X151375000Y-116775000D03*
D18*
X154450000Y-45000000D03*
X232925000Y-95500000D03*
X135150000Y-79800000D03*
D17*
X77425000Y-93125000D03*
D18*
X149100000Y-78100000D03*
D19*
X104925000Y-92900000D03*
D18*
X132625000Y-79775000D03*
X137300000Y-90850000D03*
X216550000Y-120850000D03*
D17*
X142850000Y-110175000D03*
D18*
X78902000Y-115808000D03*
D17*
X156300000Y-126450000D03*
D18*
X216325000Y-105725000D03*
X129448000Y-113522000D03*
D19*
X104950000Y-88275000D03*
D18*
X77375000Y-143425000D03*
X216625000Y-95550000D03*
D17*
X146875000Y-100825000D03*
D18*
X133975000Y-90850000D03*
X97698000Y-126476000D03*
X161706000Y-79486000D03*
D19*
X104925000Y-97550000D03*
D18*
X122717000Y-73009000D03*
X213350000Y-115100000D03*
X134375000Y-147950000D03*
D17*
X157642000Y-133588000D03*
X137576000Y-110220000D03*
D18*
X229375000Y-114525000D03*
X89550000Y-148700000D03*
X180225000Y-102595000D03*
D19*
X104975000Y-99875000D03*
D17*
X175829500Y-85666000D03*
X175829500Y-82110000D03*
X77425000Y-91500000D03*
X171125000Y-98650000D03*
X147736000Y-139938000D03*
D18*
X198925000Y-122950000D03*
X195750000Y-114850000D03*
D17*
X159150000Y-79850000D03*
X67350000Y-82175000D03*
D18*
X112252000Y-113700000D03*
D17*
X162800000Y-89125000D03*
D18*
X147990000Y-116824000D03*
X231302000Y-71612000D03*
D17*
X161700000Y-116441000D03*
D19*
X104900000Y-90600000D03*
X104925000Y-107250000D03*
D18*
X183675000Y-70125000D03*
D17*
X153550000Y-92625000D03*
D18*
X137250000Y-88250000D03*
X61122000Y-108442000D03*
X121320000Y-73525000D03*
X198650000Y-107900000D03*
X132242000Y-106410000D03*
X229375000Y-100225000D03*
X220575000Y-142075000D03*
X199000000Y-105575000D03*
X123606000Y-72120000D03*
X195725000Y-87700000D03*
X76870000Y-83042000D03*
X102778000Y-115554000D03*
X213400000Y-100100000D03*
X85760000Y-108442000D03*
D17*
X71464000Y-91750000D03*
D18*
X74584000Y-118348000D03*
D17*
X158658000Y-139938000D03*
D18*
X214250000Y-145800000D03*
D17*
X94950000Y-81300000D03*
X138338000Y-67040000D03*
D18*
X154175000Y-71525000D03*
D17*
X154775000Y-84800000D03*
D18*
X148525000Y-49575000D03*
X216425000Y-108025000D03*
D17*
X61630000Y-95488000D03*
D18*
X232775000Y-108075000D03*
X158658000Y-77200000D03*
X232775000Y-105550000D03*
X170375000Y-73100000D03*
X109200000Y-150525000D03*
X216525000Y-123525000D03*
D17*
X62138000Y-92694000D03*
D18*
X148650000Y-45975000D03*
X130718000Y-106410000D03*
D17*
X61122000Y-87360000D03*
X86300000Y-91950000D03*
D18*
X207425000Y-96175000D03*
D17*
X137275000Y-100775000D03*
D18*
X135050000Y-88275000D03*
X216725000Y-93200000D03*
D17*
X167900000Y-59725000D03*
X142300000Y-97400000D03*
D18*
X89525000Y-152575000D03*
X131500000Y-75525000D03*
D17*
X163738000Y-121650000D03*
D18*
X134304000Y-139883750D03*
D17*
X94925000Y-86800000D03*
X157850000Y-85700000D03*
D18*
X133150000Y-88325000D03*
X115460000Y-121142000D03*
X239430000Y-83042000D03*
X113954000Y-113700000D03*
X89062000Y-123428000D03*
X198925000Y-120750000D03*
D19*
X104925000Y-102075000D03*
D17*
X152425000Y-103075000D03*
D18*
X115732000Y-113700000D03*
X154200000Y-69250000D03*
X62646000Y-116062000D03*
D17*
X147240000Y-133600000D03*
D18*
X232975000Y-122850000D03*
X232875000Y-93600000D03*
D17*
X154594000Y-65770000D03*
D18*
X207450000Y-93425000D03*
D19*
%TO.N,+5V*%
X113500000Y-93525000D03*
D18*
X125638000Y-116062000D03*
X97952000Y-113776000D03*
D17*
X67472000Y-90154000D03*
D18*
X67472000Y-112252000D03*
D19*
X115575000Y-104450000D03*
D17*
X109000000Y-82325000D03*
D19*
X116425000Y-100425000D03*
D18*
X233000000Y-120400000D03*
X64678000Y-116062000D03*
X239430000Y-79486000D03*
D19*
X116650000Y-91275000D03*
D18*
X124114000Y-116062000D03*
X122336000Y-116062000D03*
X122590000Y-111490000D03*
X124622000Y-111490000D03*
D17*
X159166000Y-119872000D03*
D18*
X159928000Y-41894000D03*
D19*
X113225000Y-103775000D03*
X115825000Y-102775000D03*
D18*
%TO.N,+3V3*%
X85989000Y-83271000D03*
X120304000Y-119618000D03*
X122082000Y-104378000D03*
X118526000Y-119618000D03*
X145375000Y-41725000D03*
D17*
X162722000Y-133588000D03*
X62600000Y-82175000D03*
X83150000Y-93425000D03*
X145975000Y-116975000D03*
X147575000Y-101575000D03*
D18*
X124368000Y-104632000D03*
D17*
X72475000Y-153075000D03*
X146000000Y-116250000D03*
X165975000Y-116316000D03*
X173750000Y-90325000D03*
D18*
X119796000Y-110728000D03*
D17*
X167650000Y-97150000D03*
X146825000Y-96150000D03*
D18*
X180200000Y-105650000D03*
D17*
X152308000Y-133334000D03*
X151625000Y-92650000D03*
D18*
X119542000Y-104124000D03*
X153475000Y-41750000D03*
D17*
X154525000Y-115350000D03*
D18*
X118526000Y-109458000D03*
X180100000Y-68325000D03*
%TO.N,/FAULT A LO*%
X62500000Y-148025000D03*
%TO.N,/PWM A HI*%
X163850000Y-137925000D03*
%TO.N,/I_A*%
X89375000Y-145325000D03*
D17*
%TO.N,/PWM A LO*%
X154525000Y-143950000D03*
D18*
%TO.N,/PWM B HI*%
X161775000Y-140150000D03*
D17*
X161700000Y-152875000D03*
D18*
%TO.N,/PWM C HI*%
X164975000Y-155450000D03*
%TO.N,/PWM C LO*%
X145375000Y-137850000D03*
X155025000Y-154975000D03*
D17*
%TO.N,/GATE PSU EN*%
X81950000Y-93700000D03*
%TO.N,/LINK DISCH*%
X153050000Y-98675000D03*
X61650000Y-84925000D03*
D18*
%TO.N,/EXCA*%
X158700000Y-67400000D03*
X151700000Y-51725000D03*
D17*
%TO.N,/TMPM1_IN*%
X241716000Y-127238000D03*
X160944000Y-105394000D03*
%TO.N,/TMPWTR_IN*%
X170342000Y-86090000D03*
X162400000Y-105725000D03*
%TO.N,/TMPM2_IN*%
X232064000Y-81518000D03*
X149380000Y-110100000D03*
%TO.N,/T15_OUT*%
X152308000Y-110474000D03*
X170596000Y-107172000D03*
X89316000Y-80248000D03*
X158150000Y-106918000D03*
%TO.N,/WTR_TMP1*%
X157642000Y-53070000D03*
X157642000Y-45196000D03*
D18*
%TO.N,/IL1_IN*%
X65186000Y-120888000D03*
X65694000Y-125206000D03*
D17*
X154340000Y-114030000D03*
X105064000Y-140700000D03*
X103794000Y-154162000D03*
D18*
%TO.N,/IL2_IN*%
X75600000Y-120888000D03*
X140878000Y-148066000D03*
D17*
X157134000Y-118348000D03*
X154594000Y-130540000D03*
%TO.N,/UDC_IN*%
X97952000Y-98790000D03*
X148446238Y-106425000D03*
%TO.N,/ENC_B*%
X153832000Y-107680000D03*
X146466000Y-68564000D03*
X148498000Y-88975000D03*
X148498000Y-92186000D03*
%TO.N,/ENC_A*%
X154198000Y-109077000D03*
X145800000Y-88700000D03*
X145450000Y-91678000D03*
X135290000Y-69072000D03*
%TO.N,/FWD_IN*%
X153798504Y-109770114D03*
X170088000Y-111236000D03*
%TO.N,/REV_IN*%
X186225000Y-117725000D03*
X220000000Y-110250000D03*
D18*
X150250000Y-119125000D03*
D17*
%TO.N,/START_IN*%
X157000000Y-87050000D03*
X191900000Y-99550000D03*
%TO.N,/BRAKE_IN*%
X164246000Y-99806000D03*
X240192000Y-94218000D03*
%TO.N,/CRUISE_IN*%
X236000000Y-110950000D03*
X157600000Y-88650000D03*
%TO.N,/THROTTLE 1 IN*%
X188600000Y-109850000D03*
X160436000Y-104378000D03*
%TO.N,/THROTTLE 2 IN*%
X161198000Y-103616000D03*
X202600000Y-125050000D03*
X187400000Y-103450000D03*
%TO.N,/TMPHS_IN*%
X130210000Y-122666000D03*
X128686000Y-132572000D03*
D18*
%TO.N,/FAULT B LO*%
X109925000Y-154150000D03*
%TO.N,/FAULT C LO*%
X219000000Y-148175000D03*
D17*
%TO.N,/PWM_1N*%
X145704000Y-135620000D03*
X157388000Y-110474000D03*
%TO.N,/OCUR_NEG*%
X155864000Y-98536000D03*
X150784000Y-121904000D03*
%TO.N,/EXC_OUT*%
X160800000Y-98500000D03*
X162475000Y-92350000D03*
%TO.N,/PWM_3P*%
X169072000Y-101838000D03*
X164754000Y-139176000D03*
%TO.N,/PWM_3N*%
X163484000Y-108696000D03*
X151546000Y-140192000D03*
%TO.N,/PWM_1P*%
X156626000Y-136128000D03*
X159420000Y-114538000D03*
%TO.N,/PWM_2N*%
X163992000Y-109712000D03*
X146974000Y-141716000D03*
%TO.N,/PWM_2P*%
X160690000Y-135366000D03*
X167548000Y-102346000D03*
%TO.N,/OCUR_POS*%
X154848000Y-98790000D03*
X152054000Y-122575000D03*
D18*
%TO.N,/CANH*%
X170350000Y-71550000D03*
X163087500Y-51662500D03*
D17*
%TO.N,/RES_COSB*%
X138592000Y-62214000D03*
X150022000Y-61452000D03*
%TO.N,/FORWARD*%
X160300000Y-49750000D03*
X160350000Y-47150000D03*
%TO.N,/REVERSE*%
X213275000Y-97150000D03*
X156150000Y-61600000D03*
%TO.N,/START*%
X210050000Y-86600000D03*
X164275000Y-50475000D03*
%TO.N,/BRAKE*%
X241700000Y-87700000D03*
X153250000Y-60550000D03*
%TO.N,/CRUISE*%
X149250000Y-60650000D03*
X234650000Y-97525000D03*
%TO.N,/THROTTLE 1*%
X218325000Y-111150000D03*
X154175000Y-61100000D03*
%TO.N,/THROTTLE 2*%
X211750000Y-90550000D03*
X156900000Y-50500000D03*
%TO.N,/HS_TEMP*%
X134528000Y-132572000D03*
X111160000Y-150352000D03*
%TO.N,/MOT_TMP1*%
X155900000Y-53250000D03*
X158650000Y-45650000D03*
%TO.N,/MOT_TMP2*%
X168564000Y-45704000D03*
X155102000Y-61960000D03*
%TO.N,/8Mhz Clock*%
X163738000Y-102600000D03*
X73425000Y-89725000D03*
X98714000Y-89646000D03*
%TO.N,/MAIN_PSU_EN*%
X91875000Y-81875000D03*
X93100000Y-93425000D03*
X164500000Y-94218000D03*
D18*
X140950000Y-91475000D03*
D17*
%TO.N,/USART_TX*%
X165262000Y-122412000D03*
%TO.N,/USART_RX*%
X166024000Y-121142000D03*
%TO.N,/HFEXC*%
X162450000Y-93700000D03*
X162325000Y-101050000D03*
%TO.N,/LINK DISCH_OUT*%
X107875000Y-43825000D03*
%TO.N,Net-(CONN1-Pin_6)*%
X68875000Y-154900000D03*
%TO.N,/GATE PSU STAT IN*%
X64750000Y-72525000D03*
X131850000Y-94625000D03*
X72525000Y-72225000D03*
%TO.N,Net-(C3-Pad1)*%
X157775000Y-87750000D03*
%TO.N,Net-(IC3-INPUT-(1)_1)*%
X155400000Y-79750000D03*
X162700000Y-78125000D03*
D18*
%TO.N,Net-(IC4-F)*%
X77124000Y-118094000D03*
X83982000Y-121904000D03*
%TO.N,Net-(IC4-A)*%
X82204000Y-138160000D03*
X86014000Y-115554000D03*
%TO.N,Net-(IC4-D)*%
X87538000Y-141208000D03*
X87538000Y-119364000D03*
%TO.N,Net-(IC4-E)*%
X125384000Y-148320000D03*
X93126000Y-138668000D03*
%TO.N,Net-(IC4-G)*%
X99730000Y-119364000D03*
X170088000Y-154670000D03*
D17*
%TO.N,Net-(IC12-2Y)*%
X62392000Y-83550000D03*
X59852000Y-83042000D03*
%TD*%
D20*
%TO.N,Net-(IC7-PD15)*%
X171625000Y-105100000D02*
X172950000Y-105100000D01*
X172950000Y-105100000D02*
X181137500Y-113287500D01*
X181137500Y-113287500D02*
X181125000Y-113300000D01*
X181125000Y-113300000D02*
X183350000Y-113300000D01*
%TO.N,/TMPWTR_IN*%
X162400000Y-105725000D02*
X162400000Y-105700000D01*
X162400000Y-105700000D02*
X165262000Y-102838000D01*
X165262000Y-102838000D02*
X165262000Y-88630000D01*
X167802000Y-86090000D02*
X170342000Y-86090000D01*
X165262000Y-88630000D02*
X167802000Y-86090000D01*
D21*
%TO.N,/BRAKE*%
X153250000Y-60550000D02*
X152950000Y-60850000D01*
X152950000Y-60850000D02*
X152950000Y-65650000D01*
X152950000Y-65650000D02*
X161725000Y-74425000D01*
X161725000Y-74425000D02*
X181675000Y-74425000D01*
X182950000Y-75700000D02*
X182950000Y-84775000D01*
X181675000Y-74425000D02*
X182950000Y-75700000D01*
X237375000Y-91600000D02*
X241275000Y-87700000D01*
X182950000Y-84775000D02*
X189775000Y-91600000D01*
X189775000Y-91600000D02*
X237375000Y-91600000D01*
X241275000Y-87700000D02*
X241700000Y-87700000D01*
D20*
%TO.N,/MAIN_PSU_EN*%
X91856000Y-81894000D02*
X91856000Y-92186000D01*
X116436000Y-94276000D02*
X118018000Y-92694000D01*
X91856000Y-92186000D02*
X93946000Y-94276000D01*
X91875000Y-81875000D02*
X91856000Y-81894000D01*
X118018000Y-92694000D02*
X139608000Y-92694000D01*
X93946000Y-94276000D02*
X116436000Y-94276000D01*
X163738000Y-90154000D02*
X164500000Y-90916000D01*
X142148000Y-90154000D02*
X163738000Y-90154000D01*
X139608000Y-92694000D02*
X142148000Y-90154000D01*
X164500000Y-90916000D02*
X164500000Y-94218000D01*
D22*
%TO.N,+12V*%
X142175000Y-77425000D02*
X143475000Y-78725000D01*
X54275000Y-77425000D02*
X142175000Y-77425000D01*
D20*
X111300000Y-86250000D02*
X112462500Y-87412500D01*
D22*
X52175000Y-75325000D02*
X54275000Y-77425000D01*
X52175000Y-46125000D02*
X52175000Y-75325000D01*
X57880000Y-45000000D02*
X53300000Y-45000000D01*
D20*
X111300000Y-78925000D02*
X111300000Y-86250000D01*
D22*
X53300000Y-45000000D02*
X52175000Y-46125000D01*
D20*
%TO.N,+5V*%
X109000000Y-91625000D02*
X110950000Y-93575000D01*
X110950000Y-93575000D02*
X111000000Y-93525000D01*
X111000000Y-93525000D02*
X113500000Y-93525000D01*
X109000000Y-82325000D02*
X109000000Y-91625000D01*
D21*
%TO.N,/FAULT A LO*%
X55000000Y-148025000D02*
X62500000Y-148025000D01*
X53525000Y-149500000D02*
X55000000Y-148025000D01*
X57880000Y-154040000D02*
X54015000Y-154040000D01*
X53525000Y-153550000D02*
X53525000Y-149500000D01*
X54015000Y-154040000D02*
X53525000Y-153550000D01*
%TO.N,/PWM A HI*%
X163175000Y-156900000D02*
X163175000Y-149575000D01*
X161950000Y-158125000D02*
X163175000Y-156900000D01*
X163175000Y-138600000D02*
X163850000Y-137925000D01*
D20*
X171925000Y-149550000D02*
X163200000Y-149550000D01*
D21*
X63800000Y-158125000D02*
X161950000Y-158125000D01*
X62960000Y-157285000D02*
X63800000Y-158125000D01*
X163175000Y-149575000D02*
X163175000Y-138600000D01*
D20*
X163200000Y-149550000D02*
X163175000Y-149575000D01*
D21*
X62960000Y-154040000D02*
X62960000Y-157285000D01*
%TO.N,/I_A*%
X61100000Y-149325000D02*
X85000000Y-149325000D01*
X60420000Y-151500000D02*
X60420000Y-150005000D01*
X60420000Y-150005000D02*
X61100000Y-149325000D01*
X89000000Y-145325000D02*
X89375000Y-145325000D01*
X85000000Y-149325000D02*
X89000000Y-145325000D01*
D20*
%TO.N,/PWM A LO*%
X148875000Y-144175000D02*
X154300000Y-144175000D01*
X154300000Y-144175000D02*
X154525000Y-143950000D01*
D21*
%TO.N,/PWM B HI*%
X121125000Y-157100000D02*
X159175000Y-157100000D01*
X120460000Y-154040000D02*
X120460000Y-156435000D01*
X120460000Y-156435000D02*
X121125000Y-157100000D01*
X161675000Y-140250000D02*
X161775000Y-140150000D01*
X161675000Y-154600000D02*
X161675000Y-140250000D01*
X159175000Y-157100000D02*
X161675000Y-154600000D01*
D20*
%TO.N,/PWM C HI*%
X182875000Y-149800000D02*
X182875000Y-156925000D01*
D21*
X166650000Y-157075000D02*
X165025000Y-155450000D01*
X235460000Y-154040000D02*
X232425000Y-157075000D01*
X183025000Y-157075000D02*
X166650000Y-157075000D01*
D20*
X182875000Y-156925000D02*
X183025000Y-157075000D01*
D21*
X232425000Y-157075000D02*
X183025000Y-157075000D01*
X165025000Y-155450000D02*
X164975000Y-155450000D01*
%TO.N,/PWM C LO*%
X148325000Y-154975000D02*
X145375000Y-152025000D01*
D20*
X145225000Y-144300000D02*
X145375000Y-144450000D01*
D21*
X145375000Y-144450000D02*
X145375000Y-137850000D01*
X155025000Y-154975000D02*
X148325000Y-154975000D01*
D20*
X142375000Y-144300000D02*
X145225000Y-144300000D01*
D21*
X145375000Y-152025000D02*
X145375000Y-144450000D01*
D20*
%TO.N,/EXCA*%
X150375000Y-47825000D02*
X138025000Y-47825000D01*
X137175000Y-47925000D02*
X133875000Y-44625000D01*
X137925000Y-47925000D02*
X137175000Y-47925000D01*
D21*
X158700000Y-67400000D02*
X158700000Y-58725000D01*
D20*
X151700000Y-51725000D02*
X151700000Y-49150000D01*
X151700000Y-49150000D02*
X150375000Y-47825000D01*
X138025000Y-47825000D02*
X137925000Y-47925000D01*
D21*
X158700000Y-58725000D02*
X151700000Y-51725000D01*
D20*
%TO.N,/T15_OUT*%
X131480000Y-96250000D02*
X91856000Y-96250000D01*
X151546000Y-111236000D02*
X141386000Y-111236000D01*
X152308000Y-110474000D02*
X151546000Y-111236000D01*
X136306000Y-106156000D02*
X136306000Y-101076000D01*
X141386000Y-111236000D02*
X136306000Y-106156000D01*
X89316000Y-93710000D02*
X89316000Y-80248000D01*
X91856000Y-96250000D02*
X89316000Y-93710000D01*
X136306000Y-101076000D02*
X131480000Y-96250000D01*
%TO.N,/IL1_IN*%
X105064000Y-130540000D02*
X111160000Y-124444000D01*
X152931000Y-124444000D02*
X153585000Y-123790000D01*
D21*
X65186000Y-120888000D02*
X65186000Y-124698000D01*
D20*
X153874000Y-114496000D02*
X154340000Y-114030000D01*
X111160000Y-124444000D02*
X152931000Y-124444000D01*
X153585000Y-123790000D02*
X153585000Y-121915000D01*
X105064000Y-140700000D02*
X105064000Y-130540000D01*
X153585000Y-121915000D02*
X153841000Y-121659000D01*
X153874000Y-121692000D02*
X153874000Y-114496000D01*
X153841000Y-121659000D02*
X153874000Y-121692000D01*
D21*
X65186000Y-124698000D02*
X65694000Y-125206000D01*
%TO.N,/IL2_IN*%
X97952000Y-136636000D02*
X107858000Y-146542000D01*
X107858000Y-146542000D02*
X139354000Y-146542000D01*
X75600000Y-120888000D02*
X75600000Y-133080000D01*
X75600000Y-133080000D02*
X79156000Y-136636000D01*
X79156000Y-136636000D02*
X97952000Y-136636000D01*
X139354000Y-146542000D02*
X140878000Y-148066000D01*
D20*
%TO.N,/ENC_B*%
X147990000Y-70088000D02*
X146466000Y-68564000D01*
X147875000Y-87930000D02*
X147990000Y-87815000D01*
X140624000Y-107680000D02*
X139354000Y-106410000D01*
X139354000Y-106410000D02*
X139354000Y-97266000D01*
X142910000Y-93710000D02*
X146974000Y-93710000D01*
X146974000Y-93710000D02*
X148498000Y-92186000D01*
X148498000Y-88975000D02*
X147875000Y-88352000D01*
X147990000Y-87815000D02*
X147990000Y-70088000D01*
X153832000Y-107680000D02*
X140624000Y-107680000D01*
X139354000Y-97266000D02*
X142910000Y-93710000D01*
X147875000Y-88352000D02*
X147875000Y-87930000D01*
%TO.N,/ENC_A*%
X140370000Y-108442000D02*
X138084000Y-106156000D01*
X153563000Y-108442000D02*
X140370000Y-108442000D01*
X145800000Y-88700000D02*
X147228000Y-87272000D01*
X147228000Y-87272000D02*
X147228000Y-78724000D01*
X143418000Y-74914000D02*
X137576000Y-74914000D01*
X147228000Y-78724000D02*
X143418000Y-74914000D01*
X138084000Y-106156000D02*
X138084000Y-96250000D01*
X142656000Y-91678000D02*
X145450000Y-91678000D01*
X154198000Y-109077000D02*
X153563000Y-108442000D01*
X135290000Y-72628000D02*
X135290000Y-69072000D01*
X137576000Y-74914000D02*
X135290000Y-72628000D01*
X138084000Y-96250000D02*
X142656000Y-91678000D01*
%TO.N,/REV_IN*%
X186225000Y-117725000D02*
X186225000Y-106875000D01*
X186200000Y-106850000D02*
X186200000Y-107050000D01*
D23*
X186200000Y-102450000D02*
X186900000Y-101750000D01*
X186200000Y-107050000D02*
X186200000Y-102450000D01*
D20*
X186225000Y-106875000D02*
X186200000Y-106850000D01*
D23*
X218600000Y-101750000D02*
X220000000Y-103150000D01*
X220000000Y-103150000D02*
X220000000Y-110250000D01*
X186900000Y-101750000D02*
X218600000Y-101750000D01*
%TO.N,/THROTTLE 2 IN*%
X187400000Y-103450000D02*
X192400000Y-103450000D01*
X192400000Y-103450000D02*
X194100000Y-105150000D01*
X194100000Y-120950000D02*
X198200000Y-125050000D01*
X198200000Y-125050000D02*
X202600000Y-125050000D01*
X194100000Y-105150000D02*
X194100000Y-120950000D01*
D21*
%TO.N,/FAULT B LO*%
X115380000Y-154040000D02*
X110035000Y-154040000D01*
X110035000Y-154040000D02*
X109925000Y-154150000D01*
%TO.N,/FAULT C LO*%
X219000000Y-153400000D02*
X219000000Y-148175000D01*
X230380000Y-154040000D02*
X219640000Y-154040000D01*
X219640000Y-154040000D02*
X219000000Y-153400000D01*
D20*
%TO.N,/PWM_1N*%
X155356000Y-125206000D02*
X152816000Y-127746000D01*
X157388000Y-110728000D02*
X155356000Y-112760000D01*
X145704000Y-130032000D02*
X145704000Y-135620000D01*
X147990000Y-127746000D02*
X145704000Y-130032000D01*
X152816000Y-127746000D02*
X147990000Y-127746000D01*
X157388000Y-110474000D02*
X157388000Y-110728000D01*
X155356000Y-112760000D02*
X155356000Y-125206000D01*
%TO.N,/EXC_OUT*%
X160800000Y-94025000D02*
X162475000Y-92350000D01*
X160800000Y-98500000D02*
X160800000Y-94025000D01*
%TO.N,/PWM_3P*%
X168310000Y-137398000D02*
X168310000Y-102600000D01*
X164754000Y-139176000D02*
X166532000Y-139176000D01*
X166532000Y-139176000D02*
X168310000Y-137398000D01*
X168310000Y-102600000D02*
X169072000Y-101838000D01*
%TO.N,/PWM_3N*%
X158404000Y-127492000D02*
X159166000Y-128254000D01*
X154340000Y-140192000D02*
X151546000Y-140192000D01*
X163484000Y-108696000D02*
X162976000Y-109204000D01*
X155356000Y-139176000D02*
X154340000Y-140192000D01*
X162976000Y-109204000D02*
X159420000Y-109204000D01*
X155356000Y-132064000D02*
X155356000Y-139176000D01*
X159420000Y-109204000D02*
X158404000Y-110220000D01*
X158404000Y-110220000D02*
X158404000Y-127492000D01*
X159166000Y-128254000D02*
X155356000Y-132064000D01*
%TO.N,/PWM_1P*%
X156626000Y-131810000D02*
X159817000Y-128619000D01*
X159817000Y-114935000D02*
X159420000Y-114538000D01*
X156626000Y-136128000D02*
X156626000Y-131810000D01*
X159817000Y-128619000D02*
X159817000Y-114935000D01*
%TO.N,/PWM_2N*%
X159420000Y-140446000D02*
X158150000Y-141716000D01*
X163992000Y-109712000D02*
X164246000Y-109712000D01*
X164246000Y-109712000D02*
X166024000Y-111490000D01*
X166786000Y-111744000D02*
X166786000Y-127238000D01*
X159420000Y-131048000D02*
X159420000Y-140446000D01*
X166024000Y-111490000D02*
X166532000Y-111490000D01*
X160944000Y-129524000D02*
X159420000Y-131048000D01*
X166532000Y-111490000D02*
X166786000Y-111744000D01*
X164500000Y-129524000D02*
X160944000Y-129524000D01*
X158150000Y-141716000D02*
X146974000Y-141716000D01*
X166786000Y-127238000D02*
X164500000Y-129524000D01*
%TO.N,/PWM_2P*%
X167548000Y-133842000D02*
X167548000Y-102346000D01*
X160690000Y-135366000D02*
X166024000Y-135366000D01*
X166024000Y-135366000D02*
X167548000Y-133842000D01*
%TO.N,/OCUR_POS*%
X152054000Y-122575000D02*
X152054000Y-112506000D01*
X154848000Y-109712000D02*
X154848000Y-98790000D01*
X152054000Y-112506000D02*
X154848000Y-109712000D01*
D21*
%TO.N,/CANH*%
X163087500Y-51662500D02*
X164725000Y-53300000D01*
X164725000Y-70150000D02*
X166125000Y-71550000D01*
X166125000Y-71550000D02*
X170350000Y-71550000D01*
X164725000Y-53300000D02*
X164725000Y-70150000D01*
%TO.N,/FORWARD*%
X160350000Y-49700000D02*
X160300000Y-49750000D01*
X160350000Y-47150000D02*
X160350000Y-49700000D01*
%TO.N,/START*%
X184625000Y-66650000D02*
X183375000Y-65400000D01*
X165975000Y-61400000D02*
X165975000Y-52025000D01*
X183375000Y-65400000D02*
X169975000Y-65400000D01*
X184625000Y-82150000D02*
X184625000Y-66650000D01*
X169975000Y-65400000D02*
X165975000Y-61400000D01*
X208175000Y-84725000D02*
X187200000Y-84725000D01*
X210050000Y-86600000D02*
X208175000Y-84725000D01*
X165975000Y-52025000D02*
X164400000Y-50450000D01*
X187200000Y-84725000D02*
X184625000Y-82150000D01*
%TO.N,/CRUISE*%
X216725000Y-97525000D02*
X213850000Y-94650000D01*
X181300000Y-86025000D02*
X181300000Y-76525000D01*
X180550000Y-75775000D02*
X161533636Y-75775000D01*
X189925000Y-94650000D02*
X181300000Y-86025000D01*
X213850000Y-94650000D02*
X189925000Y-94650000D01*
X161533636Y-75775000D02*
X156133636Y-70375000D01*
X234650000Y-97525000D02*
X216725000Y-97525000D01*
X153980082Y-70375000D02*
X149125000Y-65519918D01*
X181300000Y-76525000D02*
X180550000Y-75775000D01*
X149125000Y-65519918D02*
X149125000Y-60775000D01*
X149125000Y-60775000D02*
X149250000Y-60650000D01*
X156133636Y-70375000D02*
X153980082Y-70375000D01*
%TO.N,/THROTTLE 2*%
X162825000Y-47925000D02*
X161425000Y-49325000D01*
X211750000Y-85950000D02*
X212975000Y-84725000D01*
X161425000Y-50800000D02*
X161150000Y-51075000D01*
X161425000Y-49325000D02*
X161425000Y-50800000D01*
X212975000Y-84725000D02*
X215675000Y-84725000D01*
X216700000Y-49300000D02*
X215325000Y-47925000D01*
X215675000Y-84725000D02*
X216700000Y-83700000D01*
X215325000Y-47925000D02*
X162825000Y-47925000D01*
X161150000Y-51075000D02*
X159900000Y-51075000D01*
X211750000Y-90550000D02*
X211750000Y-85950000D01*
X216700000Y-83700000D02*
X216700000Y-49300000D01*
X159325000Y-50500000D02*
X156900000Y-50500000D01*
X159900000Y-51075000D02*
X159325000Y-50500000D01*
D20*
%TO.N,/MOT_TMP1*%
X155900000Y-53250000D02*
X155900000Y-49600000D01*
X158650000Y-46850000D02*
X158650000Y-45650000D01*
X155900000Y-49600000D02*
X158650000Y-46850000D01*
%TO.N,/8Mhz Clock*%
X73425000Y-97150000D02*
X73425000Y-89725000D01*
X70675000Y-99900000D02*
X73425000Y-97150000D01*
%TO.N,/HFEXC*%
X162325000Y-101050000D02*
X162325000Y-93825000D01*
X162325000Y-93825000D02*
X162450000Y-93700000D01*
%TO.N,/LINK DISCH_OUT*%
X119725000Y-41375000D02*
X120475000Y-42125000D01*
X120460000Y-42140000D02*
X120460000Y-45000000D01*
X107875000Y-43825000D02*
X109025000Y-43825000D01*
X111475000Y-41375000D02*
X119725000Y-41375000D01*
X109025000Y-43825000D02*
X111475000Y-41375000D01*
X120475000Y-42125000D02*
X120460000Y-42140000D01*
%TO.N,Net-(CONN4-Pin_8)*%
X54875000Y-67100000D02*
X57275000Y-67100000D01*
X54860000Y-47540000D02*
X54175000Y-48225000D01*
X54175000Y-48225000D02*
X54175000Y-66400000D01*
X54175000Y-66400000D02*
X54875000Y-67100000D01*
X57880000Y-47540000D02*
X54860000Y-47540000D01*
%TO.N,/GATE PSU STAT IN*%
X72525000Y-72225000D02*
X65050000Y-72225000D01*
X65050000Y-72225000D02*
X64750000Y-72525000D01*
%TO.N,Net-(C3-Pad1)*%
X164325000Y-86500000D02*
X164325000Y-83250000D01*
X163075000Y-87750000D02*
X164325000Y-86500000D01*
X164325000Y-83250000D02*
X165350000Y-82225000D01*
X165350000Y-82225000D02*
X167925000Y-82225000D01*
X157775000Y-87750000D02*
X163075000Y-87750000D01*
%TO.N,Net-(IC3-INPUT-(1)_1)*%
X162725000Y-78150000D02*
X162700000Y-78125000D01*
X156950000Y-81300000D02*
X162125000Y-81300000D01*
X155400000Y-79750000D02*
X156950000Y-81300000D01*
X162125000Y-81300000D02*
X162725000Y-80700000D01*
X162725000Y-80700000D02*
X162725000Y-78150000D01*
D21*
%TO.N,Net-(IC4-F)*%
X81850000Y-121904000D02*
X81442000Y-121904000D01*
D20*
X81825000Y-121929000D02*
X81850000Y-121904000D01*
D21*
X77632000Y-118094000D02*
X77124000Y-118094000D01*
X81442000Y-121904000D02*
X77632000Y-118094000D01*
X83982000Y-121904000D02*
X81850000Y-121904000D01*
D20*
X81825000Y-128150000D02*
X81825000Y-121929000D01*
D21*
%TO.N,Net-(IC4-E)*%
X102778000Y-148320000D02*
X93126000Y-138668000D01*
X125384000Y-148320000D02*
X102778000Y-148320000D01*
D20*
%TO.N,Net-(IC12-2Y)*%
X60360000Y-83550000D02*
X59852000Y-83042000D01*
X62392000Y-83550000D02*
X60360000Y-83550000D01*
%TD*%
M02*
